<svg xmlns="http://www.w3.org/2000/svg" viewBox="0 0 463 463" width="512" height="512"><g fill="#FFF"><path d="M362.453 52.598c-2.942-2.965-6.85-4.598-11.007-4.598H351v-.5c0-17.369-14.131-31.5-31.5-31.5-4.503 0-8.885.97-12.945 2.84C299.271 11.885 289.715 8 279.5 8c-5.119 0-10.106 1.014-14.888 3.021C255.052 3.882 243.475 0 231.5 0s-23.552 3.882-33.112 11.021C193.606 9.014 188.618 8 183.5 8c-10.215 0-19.771 3.885-27.055 10.84A30.83 30.83 0 0 0 143.5 16C126.131 16 112 30.131 112 47.5v.501h-.463c-4.151 0-8.055 1.63-10.991 4.59-2.943 2.966-4.547 6.893-4.515 11.057.745 95.035 14.698 144.994 28.192 193.308 12.92 46.257 26.279 94.088 27.657 182.898.198 12.762 10.719 23.146 23.454 23.146h112.332c12.733 0 23.255-10.383 23.453-23.146 1.378-88.812 14.737-136.643 27.657-182.9 13.494-48.313 27.447-98.271 28.192-193.307.033-4.159-1.571-8.083-4.515-11.049zm-251.26 10.558a.473.473 0 0 1 .345-.155L127.532 63c4.669 0 8.468 3.811 8.468 8.5 0 12.958 10.542 23.5 23.5 23.5S183 84.458 183 71.495c0-4.685 3.781-8.495 8.429-8.495h16.026c4.712 0 8.545 3.823 8.545 8.522v50.708c-2.313.748-4.298 1.589-6.135 2.375-4.43 1.896-7.929 3.395-15.732 3.395-7.803 0-11.302-1.498-15.73-3.395-5.041-2.158-10.756-4.605-21.636-4.605-10.874 0-16.585 2.447-21.624 4.606-4.425 1.896-7.92 3.394-15.717 3.394-2.026 0-3.838-.11-5.516-.323-1.66-18.824-2.689-39.914-2.879-64.146a.52.52 0 0 1 .162-.375zm213.136 189.763c-13.176 47.174-26.801 95.954-28.208 186.701-.072 4.621-3.865 8.38-8.455 8.38H175.334c-4.591 0-8.384-3.759-8.455-8.379-1.408-90.747-15.032-139.527-28.208-186.701-9.232-33.056-18.122-64.893-23.234-110.048 1.282.079 2.6.128 3.989.128 10.875 0 16.586-2.447 21.625-4.606 4.425-1.896 7.92-3.394 15.716-3.394 7.804 0 11.302 1.498 15.731 3.395 5.041 2.159 10.756 4.605 21.635 4.605 10.88 0 16.595-2.447 21.637-4.605l.23-.098V223.5c0 12.958 10.542 23.5 23.5 23.5s23.5-10.542 23.5-23.5v-16c0-4.143-3.357-7.5-7.5-7.5s-7.5 3.357-7.5 7.5v16c0 4.687-3.813 8.5-8.5 8.5s-8.5-3.813-8.5-8.5V71.522C231 58.552 220.438 48 207.455 48h-16.026C178.51 48 168 58.54 168 71.5c0 4.687-3.813 8.5-8.5 8.5s-8.5-3.813-8.5-8.505C151 58.54 140.473 48 127.532 48H127v-.5c0-9.098 7.402-16.5 16.5-16.5 3.534 0 6.958 1.18 9.9 3.411a7.496 7.496 0 0 0 10.54-1.487C168.653 26.617 175.782 23 183.5 23c4.178 0 8.266 1.138 12.15 3.38a7.496 7.496 0 0 0 8.773-.926C211.898 18.713 221.515 15 231.5 15s19.602 3.713 27.075 10.454a7.496 7.496 0 0 0 8.773.926c3.885-2.242 7.974-3.38 12.151-3.38 7.718 0 14.847 3.617 19.56 9.925a7.5 7.5 0 0 0 10.54 1.487c2.942-2.231 6.366-3.411 9.9-3.411 9.098 0 16.5 7.402 16.5 16.5V48h-.476C322.553 48 312 58.542 312 71.5v16c0 4.143 3.357 7.5 7.5 7.5s7.5-3.357 7.5-7.5v-16c0-4.687 3.824-8.5 8.524-8.5h15.922c.131 0 .252.055.359.164a.505.505 0 0 1 .163.366c-.19 24.224-1.218 45.307-2.877 64.127-1.722.226-3.583.343-5.666.343-7.788 0-11.279-1.497-15.699-3.394-.239-.103-.484-.206-.727-.31V119.5c0-4.143-3.357-7.5-7.5-7.5s-7.5 3.357-7.5 7.5v9.267c-.04.452-.042.902 0 1.345v5.388c0 4.687-3.813 8.5-8.5 8.5s-8.5-3.813-8.5-8.5v-64c0-12.958-10.543-23.5-23.502-23.5-6.274 0-12.172 2.433-16.606 6.85-4.446 4.428-6.895 10.325-6.894 16.604l.001 61.953c-.002.072 0 .144 0 .216l.002 41.875a7.5 7.5 0 0 0 7.5 7.5 7.5 7.5 0 0 0 7.5-7.5l-.001-32.767c1.846.176 3.77.269 5.814.269 4.939 0 8.805-.508 12.033-1.263C283.587 151.677 292.702 159 303.5 159c11.318 0 20.792-8.043 23.009-18.713 4.115 1.484 9.218 2.713 16.917 2.713 1.443 0 2.81-.052 4.139-.137-5.113 45.159-14.003 76.998-23.236 110.056zM268.813 128c-2.322 0-4.216-.146-5.814-.362l-.001-56.185c0-2.262.88-4.384 2.479-5.976A8.478 8.478 0 0 1 271.5 63c4.687 0 8.5 3.813 8.5 8.5v54.896c-2.87.967-6.117 1.604-11.187 1.604z"/><path d="M271.5 416h-80c-4.143 0-7.5 3.357-7.5 7.5s3.357 7.5 7.5 7.5h80c4.143 0 7.5-3.357 7.5-7.5s-3.357-7.5-7.5-7.5z"/></g></svg>