<svg xmlns="http://www.w3.org/2000/svg" id="Capa_1" viewBox="0 0 46.264 46.264" width="512" height="512"><path id="map_x5F_pin" d="M31.33 1.657c-5.2-2.4-10.6-2.1-15.3.3-4.7 2.4-6.4 5.7-7.1 8-2 6.3.3 10.8 3 16.5 2.6 5.7 9.1 19.6 11 19.8s3.6-4 6.3-9.1c2.7-5.2 7.9-15.7 8.7-21.4s-1.4-11.8-6.6-14.1zm5.6 14.2c-.4-.2-5.4-6.2-5.7-6.3s-.8.1-.5.4 5.9 6.5 5.9 6.9-.3 1.8-.5 1.6-4.8-6.5-5.2-6.5c-.5-.1-.6.6-.3.8.3.3 5 6.3 5 6.6s.1.9-.2.9c-.3-.1-4.5-6-5-5.9-.5.2-.5.5-.3.8s4.8 5.9 4.8 5.9-.4 1.4-.7 1.3-3.8-5.2-4.3-5.2-.9.3-.5.8 4.4 5.2 4.3 5.5c-.1.3-.9 2.4-1.1 2.2-.2-.3-3.9-6.3-4.3-6.3-.4-.1-.5.1-.3.6s4.3 5.8 4.3 6.3c.1.5-.2 1.3-.5 1-.4-.3-4.2-5.9-4.6-6-.4-.1-.8.1-.5.5s4.7 5.9 4.5 6.2-.2 1.6-.5 1.2-4-5.9-4.3-5.9-.9.3-.5.7 4.5 5.6 4.4 5.9c-.1.3-.5 1.6-.8 1.3s-3.4-4.8-3.8-4.9-.8.2-.5.7 4 4.7 3.9 5c-.1.3.1 1.6-.6 1.1-.7-.6-3.3-4.3-3.8-4.3s-.8.4-.5.8 3.7 4.5 3.7 4.5-.4 1.1-.5.9c-.2-.2-3.1-4.4-3.6-4.5s-.7.2-.6.5 3.6 4.3 3.6 4.7-.1 2-.6 1.4-3-3.5-3.3-3.5c-.3.1-.7.1-.4.6s3.1 3.3 3 3.6c-.1.4-.4 1-.6.9-.2-.1-2.3-3-2.7-2.9s-.5.2-.4.6 2.6 2.8 2.5 3.1-.3.9-.6.5-2-2.4-2.2-2.4-.8.3-.5.6 2.5 2.7 2.4 3c-.2.3-.7 1.5-1.1 1-.5-.5-6.7-11.8-9.6-17.3-2.9-5.5-4.7-9.3-3.5-13.5 1.2-4.1 3.5-6.1 4.6-6.8 2.5-1.6 5.6-3.1 9.8-2.9 4.2.2 6.6 1.4 7.2 1.7.6.4.4.7.6.9.2.2 3.8 4.3 4.1 4.5s.6 2 .2 1.6c-.4-.4-5.4-6.5-6.2-6.6-.7-.1-.8.6-.5.8s6.7 6.6 7.1 7.2c.4.6.5 2.8.1 2.1-.5-.7-5.2-6.7-5.9-7-.7-.4-.9.6-.5.8s6.2 7 6.5 7.5c.7-.1.9.9.6.7zm-23.4-8.9c-1 .3-3 3.2-3.3 5.7s.6 5 1.1 5.2c.2.1.7.2.8-.5s-1-3.4-.9-4.9c.1-1.6 2.1-4.2 2.7-4.6.6-.3.7-1.1-.4-.9zm6.5.9c-2.1 1.6-1.9 4.4-.7 5.8 1.2 1.4 4.4 1.9 5.7.8s2.1-3.8.8-5.7-4-2.3-5.8-.9zm3.2 5.9c-1.4.4-2.1-.7-2.3-2.1s.6-1.6 1.4-2c1.2-.6 2.7.2 3 1.2.2 1.1-.8 2.5-2.1 2.9z" fill="#FFF"/></svg>