<svg xmlns="http://www.w3.org/2000/svg" id="Layer_1" viewBox="0 0 512 512" width="512" height="512"><path d="M437.019 74.98C388.667 26.628 324.381 0 256 0S123.333 26.628 74.982 74.98C26.628 123.333 0 187.62 0 256c0 41.588 10.178 82.76 29.468 119.331L1.393 498.393a10.201 10.201 0 0 0 12.212 12.212l123.065-28.073C173.239 501.822 214.411 512 256 512c68.381 0 132.667-26.628 181.019-74.98C485.372 388.667 512 324.38 512 256s-26.628-132.667-74.981-181.02zM256 491.602c-39.484 0-78.55-9.963-112.971-28.809a10.204 10.204 0 0 0-7.166-.998L24.891 487.109l25.314-110.97c.553-2.43.199-4.979-.998-7.166C30.361 334.549 20.398 295.484 20.398 256c0-129.911 105.69-235.602 235.602-235.602S491.602 126.089 491.602 256 385.911 491.602 256 491.602z" fill="#FFF"/><path d="M229.388 331.474h-77.721l84.952-85.44a10.198 10.198 0 0 0-7.231-17.391H127.143c-5.632 0-10.199 4.566-10.199 10.199s4.567 10.199 10.199 10.199h77.722l-84.953 85.44a10.198 10.198 0 0 0 7.231 17.391h102.245c5.633 0 10.199-4.566 10.199-10.199s-4.567-10.199-10.199-10.199zM379.41 281.228H278.452l108.19-108.809a10.198 10.198 0 0 0-7.231-17.391H253.927c-5.632 0-10.199 4.566-10.199 10.199s4.567 10.199 10.199 10.199h100.959l-108.19 108.809a10.198 10.198 0 0 0 7.231 17.391H379.41c5.632 0 10.199-4.566 10.199-10.199.001-5.633-4.567-10.199-10.199-10.199zM446.973 349.052c-4.935-2.711-11.137-.909-13.849 4.029-19.704 35.869-49.396 64.611-85.865 83.118-5.023 2.55-7.029 8.688-4.479 13.711a10.197 10.197 0 0 0 13.71 4.479c40.143-20.372 72.825-52.008 94.513-91.487 2.711-4.936.907-11.138-4.03-13.85zM321.933 457.958c-1.485-5.433-7.091-8.631-12.528-7.148a201.002 201.002 0 0 1-17.47 3.948c-5.543.994-9.232 6.296-8.237 11.84.885 4.935 5.183 8.399 10.027 8.399.598 0 1.205-.053 1.813-.161a222.398 222.398 0 0 0 19.247-4.35c5.433-1.486 8.634-7.095 7.148-12.528z" fill="#FFF"/></svg>