<svg xmlns="http://www.w3.org/2000/svg" id="Layer_1" viewBox="0 0 512.001 512.001" width="512" height="512"><path d="M484.696 428.817h-20.991V201.23h7.701c4.656 0 8.43-3.774 8.43-8.43s-3.773-8.43-8.43-8.43h-7.701v-21.797h7.701c4.656 0 8.43-3.774 8.43-8.43s-3.773-8.43-8.43-8.43H447.18v-13.487a8.43 8.43 0 0 0-8.43-8.43c-9.443 0-18.33-3.679-25.016-10.355-6.685-6.685-10.367-15.57-10.367-25.016v-9.036a8.43 8.43 0 0 0-8.43-8.43h-22.18c-7.339-13.958-21.98-23.505-38.816-23.505s-31.475 9.547-38.816 23.505h-22.193a8.43 8.43 0 0 0-8.43 8.43v9.036c0 19.504-15.867 35.371-35.371 35.371a8.43 8.43 0 0 0-8.43 8.43v13.487h-15.308V111.52a8.43 8.43 0 0 0-8.43-8.43h-34.842a8.43 8.43 0 0 0-8.43 8.43v34.195h-8.992V68.897a8.43 8.43 0 0 0-8.43-8.43H101.43a8.43 8.43 0 0 0-8.43 8.43v76.82H40.593a8.43 8.43 0 0 0-8.43 8.43 8.43 8.43 0 0 0 8.43 8.43h7.701v21.797h-7.701c-4.656 0-8.43 3.774-8.43 8.43s3.773 8.43 8.43 8.43h7.701v227.587h-20.99a8.43 8.43 0 0 0-8.43 8.43v66.323a8.43 8.43 0 0 0 8.43 8.43h457.392a8.43 8.43 0 0 0 8.43-8.43v-66.323a8.43 8.43 0 0 0-8.43-8.434zM333.942 64.315c14.872 0 26.972 12.1 26.972 26.974 0 14.872-12.1 26.972-26.972 26.972s-26.973-12.1-26.973-26.972c.001-14.873 12.101-26.974 26.973-26.974zm-52.578 24.112v-.607h8.897c-.09 1.145-.15 2.3-.15 3.467 0 24.168 19.662 43.832 43.832 43.832s43.832-19.663 43.832-43.832c0-1.169-.06-2.322-.149-3.467h8.885v.607c0 13.949 5.435 27.067 15.308 36.941 7.854 7.843 17.762 12.883 28.503 14.616v5.731H237.565v-5.738h-.001c24.805-4.041 43.8-25.619 43.8-51.55zm-110.81 31.523h17.983v25.765h-17.983V119.95zm-60.693-42.624h17.983v68.39h-17.983v-68.39zm-44.708 85.248h381.694v21.797H65.153v-21.797zm0 38.656h381.694v227.587H386.94V232.505a8.43 8.43 0 0 0-8.43-8.43H133.489a8.43 8.43 0 0 0-8.43 8.43v196.312H65.153V201.23zm76.766 199.231V240.935h228.16v159.526h-228.16zm228.16 16.86v11.497h-15.172v-11.497h15.172zm-32.031 0v11.497h-43.46v-11.497h43.46zm-60.319 0v11.497h-43.46v-11.497h43.46zm-60.319 0v11.497h-43.459v-11.497h43.459zm-60.318 0v11.497h-15.173v-11.497h15.173zm319.175 77.819H35.734v-49.464h440.533v49.464zM135.939 13.595h.001L124.814 2.469a8.43 8.43 0 0 0-11.922 0l-11.125 11.126c-4.565 4.564-7.079 10.633-7.079 17.087s2.513 12.523 7.079 17.088c4.562 4.563 10.631 7.076 17.086 7.076a24.003 24.003 0 0 0 17.085-7.077c4.565-4.564 7.079-10.633 7.079-17.087s-2.513-12.523-7.078-17.087zm-11.921 22.253c-1.38 1.38-3.213 2.14-5.165 2.14s-3.787-.76-5.168-2.141c-1.38-1.38-2.139-3.214-2.139-5.166s.76-3.785 2.14-5.166l5.166-5.166 5.166 5.166h.001c1.38 1.38 2.139 3.215 2.139 5.166s-.76 3.787-2.14 5.167z" fill="#FFF"/><path d="M196.633 55.293l-11.126-11.126a8.43 8.43 0 0 0-11.922 0L162.46 55.293c-4.565 4.564-7.079 10.633-7.079 17.087a24 24 0 0 0 7.079 17.087c4.562 4.564 10.631 7.077 17.085 7.077 6.455 0 12.524-2.514 17.086-7.077 4.565-4.564 7.079-10.633 7.079-17.087s-2.513-12.522-7.077-17.087zm-11.922 22.254a7.255 7.255 0 0 1-5.166 2.14 7.263 7.263 0 0 1-5.167-2.14c-1.38-1.38-2.139-3.214-2.139-5.166s.76-3.785 2.14-5.166l5.166-5.166 5.166 5.166h.001c1.38 1.38 2.139 3.214 2.139 5.166s-.76 3.785-2.14 5.166zM286.242 273.639c-17.417-17.164-35.54-26.82-36.304-27.222a8.429 8.429 0 0 0-12.365 7.455c0 31.022-11.045 41.358-22.737 52.3-10.199 9.545-21.758 20.361-21.23 43.65.47 20.741 13.672 37.697 35.312 45.358 1.533.543 3.11.807 4.666.807 3.944 0 7.765-1.693 10.473-4.814 3.802-4.385 4.522-10.537 1.834-15.672-6.532-12.477-5.657-23.319 2.728-32.87 2.903 7.149 7.247 12.292 11.012 16.746 4.767 5.642 7.255 8.813 7.255 13.704 0 1.737-.105 3.382-.308 4.889a13.913 13.913 0 0 0 5.588 13.112 13.968 13.968 0 0 0 14.247 1.353c18.038-8.562 29.216-23.758 31.473-42.789 3.116-26.254-7.826-52.536-31.644-76.007zm14.901 74.02c-1.659 13.985-9.639 22.263-17.421 27.079.016-.547.024-1.1.024-1.658 0-11.288-5.97-18.353-11.237-24.586-5.24-6.202-9.766-11.556-10.269-21.755a8.43 8.43 0 0 0-13.134-6.572c-21.698 14.634-29.205 34.796-21.281 56.157-8.109-4.365-17.038-12.441-17.366-26.886-.356-15.748 6.46-22.126 15.895-30.955 10.771-10.08 23.81-22.281 27.227-49.948 18.424 12.728 52.034 41.442 47.562 79.124zM333.942 72.829a8.43 8.43 0 0 0-8.43 8.43v10.029a8.43 8.43 0 0 0 8.43 8.43 8.43 8.43 0 0 0 8.43-8.43V81.259a8.43 8.43 0 0 0-8.43-8.43z" fill="#FFF"/></svg>