<svg xmlns="http://www.w3.org/2000/svg" id="Capa_1" viewBox="0 0 60 60" width="512" height="512"><g fill="#FFF"><path d="M39 27c3.309 0 6-2.691 6-6s-2.691-6-6-6-6 2.691-6 6 2.691 6 6 6zm0-10c2.206 0 4 1.794 4 4s-1.794 4-4 4-4-1.794-4-4 1.794-4 4-4zM18.891 38.53a.999.999 0 0 0-.09-1.052l-1.118-1.498.6-1.77a.999.999 0 0 0-1.268-1.268l-1.77.6-1.498-1.117a.999.999 0 1 0-1.598.814l.024 1.868-1.526 1.079a.999.999 0 0 0 .281 1.772l1.785.555.555 1.784a1 1 0 0 0 1.772.28l1.079-1.525 1.868.024c.392-.012.731-.207.904-.546zm-3.272-1.485c-.319.029-.64.154-.83.423l-.213.301-.109-.352a1 1 0 0 0-.658-.658l-.352-.109.301-.213c.269-.19.426-.5.422-.829l-.005-.368.295.221c.265.196.609.25.919.146l.349-.118-.118.349a.998.998 0 0 0 .146.919l.22.295-.367-.007zM39 13a1 1 0 0 0 1-1V1a1 1 0 1 0-2 0v11a1 1 0 0 0 1 1zM39 56.5a1 1 0 0 0-1 1V59a1 1 0 1 0 2 0v-1.5a1 1 0 0 0-1-1zM39 50.723a1 1 0 0 0-1 1v2.889a1 1 0 1 0 2 0v-2.889a1 1 0 0 0-1-1zM39 44.944a1 1 0 0 0-1 1v2.89a1 1 0 1 0 2 0v-2.89a1 1 0 0 0-1-1zM39 33.389a1 1 0 0 0-1 1v2.89a1 1 0 1 0 2 0v-2.89a1 1 0 0 0-1-1zM39 39.167a1 1 0 0 0-1 1v2.889a1 1 0 1 0 2 0v-2.889a1 1 0 0 0-1-1zM39 29a1 1 0 0 0-1 1v1.5a1 1 0 1 0 2 0V30a1 1 0 0 0-1-1zM59 20H48a1 1 0 1 0 0 2h11a1 1 0 1 0 0-2zM19 22h11a1 1 0 1 0 0-2H19a1 1 0 1 0 0 2zM44.657 15.343a.997.997 0 0 0 1.414 0l7.779-7.778a.999.999 0 1 0-1.414-1.414l-7.779 7.778a.999.999 0 0 0 0 1.414zM26 35a.997.997 0 0 0 .707-.293l6.636-6.636a.999.999 0 1 0-1.414-1.414l-6.636 6.636A.999.999 0 0 0 26 35zM46.071 26.657a.999.999 0 1 0-1.414 1.414l7.779 7.778a.997.997 0 0 0 1.414 0 .999.999 0 0 0 0-1.414l-7.779-7.778zM31.929 15.343a.997.997 0 0 0 1.414 0 .999.999 0 0 0 0-1.414L25.565 6.15a.999.999 0 1 0-1.414 1.414l7.778 7.779zM42.171 13.514a1 1 0 0 0 1.314-.522l4.361-10.099a1 1 0 0 0-1.835-.793L41.65 12.199a1.001 1.001 0 0 0 .521 1.315zM35.829 28.202a1 1 0 0 0-1.314.521l-4.361 10.099a1 1 0 1 0 1.835.792l4.361-10.099a1 1 0 0 0-.521-1.313zM57.758 27.869l-10.099-4.361a1 1 0 0 0-.793 1.835l10.099 4.361a1 1 0 0 0 .793-1.835zM20.242 13.847l10.099 4.361a1 1 0 0 0 .793-1.836l-10.099-4.361a1 1 0 0 0-.793 1.836zM46.543 18.193a1 1 0 0 0 1.276.61l10.372-3.664a1 1 0 0 0 .61-1.276 1.004 1.004 0 0 0-1.276-.61l-10.372 3.664a1 1 0 0 0-.61 1.276zM24 27a.993.993 0 0 0 .312-.05l6.514-2.145a1 1 0 0 0-.625-1.901l-6.514 2.145A1 1 0 0 0 24 27zM42.94 29.011a1 1 0 0 0-1.886.666l3.664 10.372a1 1 0 1 0 1.886-.666L42.94 29.011zM35.06 12.705a1 1 0 1 0 1.886-.666L33.282 1.667a1 1 0 0 0-1.886.666l3.664 10.372zM16 22a1 1 0 1 0-2 0v2a1 1 0 1 0 2 0v-2zM15 30a1 1 0 0 0 1-1v-2a1 1 0 1 0-2 0v2a1 1 0 0 0 1 1zM15 42.05a1 1 0 0 0-1 1V59a1 1 0 1 0 2 0V43.05a1 1 0 0 0-1-1zM25 37a1 1 0 0 0-1-1h-2a1 1 0 1 0 0 2h2a1 1 0 0 0 1-1zM6 37h2a1 1 0 1 0 0-2H6a1 1 0 1 0 0 2zM4 36a1 1 0 0 0-1-1H1a1 1 0 1 0 0 2h2a1 1 0 0 0 1-1zM24.01 31a1 1 0 1 0 0-2H24c-.552 0-.995.447-.995 1s.453 1 1.005 1zM20.001 34a.996.996 0 0 0 .599-.2l1.6-1.2a.999.999 0 1 0-1.2-1.599l-1.6 1.2A.999.999 0 0 0 20.001 34zM5.707 43.879l-1.414 1.414a.999.999 0 1 0 1.414 1.414l1.414-1.414a.999.999 0 1 0-1.414-1.414zM9.243 43.172l1.414-1.415a1 1 0 0 0-1.415-1.414l-1.414 1.415a1 1 0 0 0 1.415 1.414zM7.048 26.896l-1.28-1.536a1 1 0 1 0-1.536 1.281l1.28 1.536a.998.998 0 0 0 1.409.128 1 1 0 0 0 .127-1.409zM10.25 30.738L8.969 29.2a1 1 0 1 0-1.536 1.28l1.281 1.537a1 1 0 1 0 1.536-1.279zM18 27.764l-.895 1.789a1 1 0 1 0 1.79.894l.895-1.789a1 1 0 1 0-1.79-.894zM19.789 26.423a1 1 0 0 0 1.342-.448l.764-1.528a1 1 0 0 0-1.789-.895l-.764 1.528a1 1 0 0 0 .447 1.343zM12.447 42.105a1 1 0 0 0-1.342.447l-.764 1.528a1 1 0 1 0 1.789.894l.764-1.528a.999.999 0 0 0-.447-1.341zM10.342 46.316A1.001 1.001 0 0 0 9 46.764l-.895 1.789a1 1 0 1 0 1.79.894l.895-1.789a1.002 1.002 0 0 0-.448-1.342zM23.229 39.814l-1.857-.743a.998.998 0 0 0-1.3.558 1 1 0 0 0 .557 1.3l1.857.743a1 1 0 0 0 .743-1.858zM26.371 41.071l-.357-.143a.997.997 0 0 0-1.299.559.999.999 0 0 0 .558 1.299l.357.143a1 1 0 0 0 .741-1.858zM5.677 32.576a1 1 0 0 0 .525 1.313l1.838.788a.999.999 0 0 0 .788-1.838l-1.838-.788a.998.998 0 0 0-1.313.525zM1.606 31.919l1.838.788a.999.999 0 0 0 .788-1.838l-1.838-.788a.995.995 0 0 0-1.313.525 1 1 0 0 0 .525 1.313zM6.807 40.626c.091 0 .183-.013.275-.038l1.923-.549a1 1 0 0 0-.549-1.924l-1.923.549a1 1 0 0 0 .274 1.962zM4.884 40.175a1.004 1.004 0 0 0-1.236-.687l-1.923.55A1.002 1.002 0 0 0 2 42c.091 0 .184-.013.275-.038l1.923-.55a1 1 0 0 0 .686-1.237zM19.941 43.109l-1.109-1.664a1 1 0 0 0-1.664 1.11l1.109 1.664a1 1 0 1 0 1.664-1.11zM21.605 45.605a1 1 0 1 0-1.664 1.11l1.109 1.664a1 1 0 1 0 1.664-1.11l-1.109-1.664zM11.922 30.73a1 1 0 0 0 .962-1.274l-.549-1.923a1.005 1.005 0 0 0-1.236-.688 1 1 0 0 0-.687 1.236l.549 1.923a1 1 0 0 0 .961.726zM9.039 23.274l.549 1.923a1 1 0 0 0 1.923-.548l-.549-1.923a.999.999 0 1 0-1.923.548zM5.5 15C7.43 15 9 13.43 9 11.5S7.43 8 5.5 8 2 9.57 2 11.5 3.57 15 5.5 15zm0-5c.827 0 1.5.673 1.5 1.5S6.327 13 5.5 13 4 12.327 4 11.5 4.673 10 5.5 10zM14.5 9C16.43 9 18 7.43 18 5.5S16.43 2 14.5 2 11 3.57 11 5.5 12.57 9 14.5 9zm0-5c.827 0 1.5.673 1.5 1.5S15.327 7 14.5 7 13 6.327 13 5.5 13.673 4 14.5 4z"/><circle cx="13.5" cy="12.5" r="1.5"/><circle cx="8.5" cy="17.5" r="1.5"/></g></svg>