<svg xmlns="http://www.w3.org/2000/svg" id="Capa_1" viewBox="0 0 46.617 46.617" width="512" height="512"><path id="snap_x5F_chat" d="M45.361 37.217c.4-.4.4-1 .2-1.4-.2-.4-2-2-3.1-3.7-1.1-1.8-1.8-5.4-1.8-5.4s.7-.3 1.1-.6 1.2-1.2 1.7-2.4 0-3.3-.6-3.7-3.2.2-3.7.1c-.4-.1-.3-.4-.2-2 0-1.5-1-6.6-2.1-10.2-1.1-3.6-3.2-7.3-7.7-7.8s-9 .6-12.2 3.3c-3.2 2.8-4.3 6.5-5 9.6-.6 3.1-.6 7-.8 7.3s-2.5-.8-3.8-.5c-1.3.2-1.4 1.3-.9 2.7.5 1.3 2.3 2.1 2.5 2.3s.1.4-.2 2.2c-.3 1.7-2.8 5.3-4.6 7.2-1.8 1.9-3 2-3.2 2.3-.1.3-.1 1.6 1.6 3.2 1.7 1.6 4.3 1.7 4.3 1.7.5.7 1.9 2.1 3.7 2.3 1.8.2 5.4-1.1 5.4-1.1s1.4 1.5 3.1 2.6 3.8 1.4 8.4 1.4c4.7 0 7.5-3.3 7.5-3.3s1.4 0 4.6-.3c3.1-.3 4.1-1.2 4.2-1.5s-.9-2.4-.7-2.5c.3-.2 1.9-1.4 2.3-1.8zm-8-6.3c.3.4 4.9 5 5.1 5.4s.4.7.3.8-1.2 1-1.5.7-4.6-5.2-4.8-5.4c-.3-.2-.5-.5-.7-.3s-.4.5-.2.6c.2.1 5.3 5.2 5.3 5.3s-.6.1-.4.5c.1.4.6 1.7.5 1.8s-3.6-4.3-4.5-5.1-1.2-.9-1.4-.8c-.2.2-.7.3-.3.6.4.2 2.6 2.4 3.8 3.7 1.2 1.4 1.6 1.6 1.4 1.7-.3.1-.9.3-1.1.1s-4.7-4.6-5-4.9c-.3-.3-.4-.3-.7-.1-.3.2-.6.3-.1.7.5.3 5.4 4.5 5.1 4.5s-1.9.2-2.3-.1-3.3-3.9-3.8-4-1.1-.1-.8.3c.3.4 3.6 3.4 3.2 3.4h-1.3s-2.4-3.1-2.6-3-.5.4-.3.6c.2.3 2.4 2.6 2.4 2.7 0 .1-.6.9-.8.5s-2.1-2-2.5-1.9c-.4 0-.4.3 0 .6s2.1 1.6 1.9 1.7c-.2.1-1 .6-1.1.6-.1-.1-1.8-2-2.2-2-.3 0-.9.1-.6.4.3.2 2.3 1.9 1.8 2s-.9.4-1.1.3c-.2-.1-1.4-1.9-1.8-1.8-.3.1-.9.5-.6.7s1.4 1.3.9 1.4c-.4 0-4.1 0-6.6-1.1-2.5-1.2-3.9-2.2-4.5-2.3-.6-.1-2.8.7-4.6.7-1.8 0-2.1.2-2.3-.1-.2-.3-.6-2.4-1.2-2.4s-3.5.4-5.3-1.6c-.2-.2 3.4-1.3 5.3-4.7 1.8-3.4 3.3-6.1 2.7-7-.6-.9-2-1.4-2.4-2.4-.4-.9-.9-1.6.2-1.6s3.1.7 3.7.6c.6 0 .7-.6.7-1.5s.1-6.2 1.2-9.3 2.8-5.7 6.1-7.6c3.3-1.9 7.1-2.2 9.4-1.9 2.3.2 4.5 2.1 4.9 2.5s.6.7.4.6c-.2-.1-1.6-1.5-1.9-1.1-.3.3-.4.8.3 1.2.7.4 2.6 2 2.7 2.2s.8 1.6.5 1.5c-.3-.2-2.8-2.6-3.1-2.3-.3.3-.3.6 0 .8s3.2 2.4 3.3 2.6 1 2.3.7 2-3.2-2.8-3.5-2.6-.6.4-.1.6c.5.3 3.9 3.1 4 3.4.1.3.7 2.4.4 2.2-.3-.2-3.3-2.9-3.4-2.9-.1.1-.3.4-.1.5s3.6 3 3.7 3.3c0 .3.5 1.8.1 1.7s-3.4-3.2-3.7-3c-.3.2-.2.9 0 1s3.8 2.8 3.8 2.9c0 .2.2 1.8 0 1.7-.1-.1-3.3-2.6-3.6-2.5s-.2.6 0 .9c.2.2 3.5 2.4 3.8 2.5s1.1.4 2 .2 1.9-.2 2.1-.1-.1 1.4-.7 2.4-1.3 1.2-1.7 1.4c-.4.2-.7.5-.7.7v.3s-1.9-2.2-2.3-2.1-.6.7-.5.9c.1.1 2.8 2.1 3 2.6s1.3 3.3.9 3c-.3-.3-3.5-3.6-3.7-3.5s-.4.9-.2 1c.2.1 4.4 4 4.5 4.1s1.4 2.4 2.1 3 1.3 1 1.3 1.1-.7 1-.9.8-4.1-4.6-4.9-5.4c-.8-.8-1.3-1.3-1.7-1.2-.2.4.3.8.6 1.1zm-26.4-3.3c-.3.1-.8 1.1-1.5 2.7s-2.1 2.6-2.2 3c-.2.7.1.7.4.7.4 0 1-.6 1.7-1.6s1.4-2.3 2.1-3.6c.6-1.4-.2-1.3-.5-1.2zm8.8-22.2c-1 .3-3.9 2.9-4.5 4.4s-1.2 4.3-.9 4.8c.2.4.6.3 1 .2.3-.2.1-2 .7-4.2.7-2.2 3.2-3.5 3.9-4 .7-.6.8-1.5-.2-1.2z" fill="#FFF"/></svg>