<svg xmlns="http://www.w3.org/2000/svg" id="Capa_1" width="512" height="512" viewBox="0 0 377.104 377.104"><path d="M357.774 25.826c-20.809-42.228-69.156-26.928-89.964 4.896-11.017-32.436-66.097-31.824-86.292-.612-3.06 4.896-5.508 10.404-7.344 15.3-11.628-14.076-31.824-21.42-49.572-18.36-17.136 3.06-34.884 18.972-33.048 36.108-32.436-17.748-80.784-7.344-77.112 39.168 4.284 52.632 80.173 79.56 123.624 85.679-4.896 6.119-13.464 17.748-7.344 23.256 3.061 2.447 7.956 1.836 11.628 1.836h6.12c-7.344 7.955-10.404 15.912-11.016 23.867-4.284-1.223-9.181-1.223-13.464 1.226-4.284 2.446-6.732 7.344-5.509 12.852.612 4.896 4.896 7.957 9.181 7.344 4.284 0 7.956-3.059 11.628-6.119 3.06 9.793 8.567 19.584 14.688 29.378-5.508.61-11.016 3.059-15.3 6.729-4.284 4.285-6.731 11.629-1.836 15.912 4.284 3.672 11.016 3.672 15.3 1.225 4.284-2.446 7.345-6.731 9.792-11.016 7.345 10.404 14.688 20.807 19.584 30.6-1.224-.61-3.06-1.225-4.284-1.225-4.896 0-10.403 1.836-12.852 6.731-2.449 4.896.612 11.017 5.508 13.466 5.508 3.059 12.24 1.223 17.748-1.836 1.225 8.565-1.836 17.135-10.404 23.866-3.06 2.447 0 6.732 3.673 6.119 14.075-4.283 18.358-17.135 16.522-29.985 3.061-.613 5.509-2.449 7.956-3.675 2.448-1.223 5.509-2.446 7.345-4.282 3.672-3.673 5.508-9.181 2.447-13.464-3.061-3.674-8.567-4.896-12.853-3.061-4.283 1.836-7.344 5.508-9.18 9.18-4.896-11.629-14.075-23.256-23.256-34.885 4.284-1.223 7.956-3.672 10.404-6.119 3.672-3.672 5.508-9.793 3.06-14.688-2.447-4.896-8.567-6.121-13.464-4.285-5.508 2.449-7.956 7.344-9.18 12.852-6.12-9.18-11.628-18.358-14.688-27.539 4.896 0 9.792-1.836 12.853-4.282 4.284-3.062 6.12-9.183 4.896-14.076-1.836-5.508-7.956-7.344-12.852-5.508-2.448.61-4.284 2.446-5.508 4.282 1.224-6.118 4.284-12.852 9.792-19.584h6.12c3.06 0 4.283-3.061 3.06-5.508-3.06-5.508-5.508-11.016-8.568-15.912-1.224-2.447-3.06-5.507-4.896-7.955 3.672-3.672 6.12-7.956 7.956-10.404 13.464-17.748 26.928-35.496 39.167-54.468 15.912 14.076 36.107 24.48 55.08 28.152-2.448 6.732-4.284 14.076-6.732 20.808-.611 1.836.612 4.284 2.448 4.896 3.672.612 7.344 1.224 10.403 1.224-4.283 4.896-7.344 9.792-10.403 15.3-2.448-3.06-5.508-6.12-9.181-7.344-5.508-2.448-12.853-1.224-17.136 3.672-4.284 5.509-2.448 12.853 3.061 16.523 4.896 3.672 11.628 4.283 17.136 2.447-3.061 11.016-3.672 23.256-3.061 34.885-8.567-3.061-18.359.611-22.031 9.791-3.061 7.344 1.836 12.852 9.18 14.076 5.509 1.225 11.628-.611 16.524-4.283 4.283 15.299 12.852 32.437 18.972 49.572-3.061-1.836-6.12-2.449-9.18-2.449-8.568 0-14.688 6.121-15.912 14.076-1.225 6.731.611 14.688 9.18 12.852 7.345-1.836 14.688-6.729 19.584-12.852 5.509 18.359 6.732 35.496-4.896 48.961-3.673 4.283.611 9.791 5.508 7.344 21.42-11.629 20.809-35.496 14.076-55.69 3.672.61 7.956-1.839 11.016-3.062 6.732-3.061 11.628-9.793 10.404-17.748-1.225-7.957-9.181-11.016-15.912-7.957-5.508 1.836-9.181 5.508-12.24 10.404-4.896-13.463-9.792-25.703-13.464-37.943h2.448c7.956-.61 15.912-4.896 17.748-12.852 1.836-6.732-3.673-13.465-9.792-14.689-6.12-1.223-11.629 1.226-15.301 4.896-1.836-11.627-1.836-22.646.611-34.885 3.673 3.674 7.956 6.731 11.628 7.957 6.732 1.836 14.076-.611 17.748-6.732 3.673-5.508 1.225-12.852-4.283-15.299-7.345-3.673-14.688 0-21.421 1.836 1.837-6.121 4.284-12.241 7.345-18.973h1.225c4.896.612 9.18-1.224 11.017-6.12 1.836-4.284 0-8.568-1.837-12.24-1.224-3.06-3.672-6.732-5.508-10.404 44.066-17.748 109.551-71.604 85.682-121.174zM131.948 252.265c-3.061 1.836-7.956 2.447-7.956-2.446-.612-7.957 7.344-9.183 14.075-8.568 0 1.836.612 4.283.612 6.119-2.449 1.834-4.284 3.67-6.731 4.895zm70.378 70.992c3.061-1.836 9.181-2.447 9.792 1.836 1.225 6.119-9.18 9.181-15.3 11.629V335.499c0-.613-.611-1.836-.611-2.449 1.224-4.285 3.06-7.346 6.119-9.793zm-15.298 12.851c-3.061 1.225-7.345 3.061-11.017 2.448-4.284-1.225-5.508-5.51-1.224-7.346 3.672-1.223 7.344.613 11.016 2.449.613.613.613 1.225 1.225 2.449zm-16.525-63.648c3.06-2.447 8.568-1.836 8.568 3.062 0 7.344-7.956 7.344-12.853 9.793l-1.224-1.226c1.226-4.285 1.838-9.18 5.509-11.629zm-12.239 15.301c-3.672 4.896-6.731 11.627-12.24 11.627-4.896 0-2.447-4.282 0-6.729 3.672-2.451 7.955-4.287 12.24-4.898zm-6.732-54.469c3.672-1.836 8.567-1.223 8.567 3.672 0 3.672-3.06 6.121-6.731 7.346-2.448.611-5.509 0-7.956 0v-1.836c1.224-3.674 3.06-7.346 6.12-9.182zm85.067 22.645c-3.672 1.226-11.628 1.837-8.567-4.282 3.061-6.121 9.792-6.732 15.301-4.285v.613c0 1.223.611 3.059.611 4.282-2.45 1.224-4.897 2.447-7.345 3.672zm11.015-58.141c-4.283.613-7.956 1.836-12.239.613-4.896-1.226-8.568-7.344-3.061-10.404 6.731-3.671 11.628 1.836 15.911 7.344.002.611-.611 1.224-.611 2.447zm6.12 124.236c-1.225.613-4.284 2.449-5.508 3.061-1.225.612-1.837.611-.612 0v-4.283c1.225-6.12 5.509-8.567 11.017-7.346 1.225.613 3.061.613 4.284 1.836-3.061 2.449-5.509 4.896-9.181 6.732zm33.048-20.806c2.448-1.225 7.956-4.284 9.792-.612 1.225 3.061-.611 6.121-3.061 7.957-1.836 1.223-7.956 4.282-9.18 3.672 0 0-.612 0-.612-.613h-.611c-1.225 0-2.447 0-3.061.613 0-.613-.611-1.226-.611-2.449 1.836-3.061 4.285-6.121 7.344-8.568zm-18.971-58.141c3.672-.611 8.567.611 9.18 5.508 0 4.283-3.672 6.732-7.344 7.344-.612 0-4.896.611-7.956.611-.612-2.447-1.225-4.895-1.836-7.344 1.835-2.447 4.284-4.894 7.956-6.119zm4.284-45.9c4.896-.61 16.523 1.226 10.404 7.957-6.731 7.345-13.465-.612-18.36-6.731 2.448-.002 4.895-.615 7.956-1.226zm-116.281 8.568c-5.508 0-11.016 0-16.523.611-4.896 0-1.836-3.672-.612-6.732 1.836-3.672 3.061-7.344 5.508-11.015h1.836c1.225 2.449 3.061 5.507 4.284 7.957 1.836 2.447 3.672 5.507 5.507 9.179zm-12.238-26.315s-.613 0 0 0c-27.54-12.852-57.528-18.36-83.232-35.496-15.912-11.016-31.824-25.704-30.6-46.512C32.191 60.098 71.36 63.77 95.84 74.174v.612c2.448 3.672 8.568 1.224 7.344-3.06-4.896-23.868 17.748-36.108 38.557-31.824 12.239 2.448 20.808 9.18 28.764 17.748-1.836 19.584 6.12 37.944 19.584 52.632-11.017 17.747-42.841 63.648-46.513 69.156zm121.175-13.464c-3.061 0-5.509-.612-8.567-.612l3.672-18.36c.611 0 .611-.612 1.224-.612 1.225 1.836 2.448 3.06 4.284 3.06 2.448 4.896 6.731 9.18 7.956 14.688 1.223 3.672-5.509 1.836-8.569 1.836zm-1.836-29.376c-1.836.612-2.448 1.836-3.061 3.06l-.612-.612c-29.376-11.628-61.199-28.152-69.768-61.2-4.896-18.972 0-41.616 17.136-53.244 24.479-16.524 47.124 3.06 52.632 26.928 1.225 4.896 9.792 5.508 10.404 0 0-1.224 0-1.836.611-3.06 8.567-17.136 22.032-33.66 42.229-34.884 14.688-.612 30.601 8.568 34.885 23.256 3.672 12.24-4.284 28.764-9.793 38.556-17.136 29.375-44.676 48.348-74.663 61.2z" fill="#FFF"/></svg>