<svg xmlns="http://www.w3.org/2000/svg" id="Capa_1" viewBox="0 0 430.116 430.116" width="512" height="512"><path d="M429.384 266.136l-13.732-30.801 13.926-31.233a5.999 5.999 0 0 0-5.48-8.443h-45.089c-6.13-23.675-24.62-41.915-47.316-46.114-5.132-.95-10.223-1.135-15.196-.594-9.134-29.097-33.282-51.078-61.61-55.449-27.034-4.168-52.248 7.634-70.338 32.559-18.722-25.647-45.563-37.551-73.279-32.036-31.651 6.304-56.435 33.596-61.671 67.911-3.307 21.676 1.133 44.685 12.863 67.4h-38.7l12.447-9.494a5.999 5.999 0 0 0 1.132-8.409 5.998 5.998 0 0 0-8.409-1.132l-26.57 20.264a5.999 5.999 0 0 0-1.132 8.409c.334.438.719.809 1.136 1.127l-.004.005 26.568 20.265a5.972 5.972 0 0 0 3.634 1.23 5.999 5.999 0 0 0 3.643-10.77l-12.447-9.494h45.595a170.217 170.217 0 0 0 3.06 4.667c22.322 32.812 59.086 63.327 109.268 90.701.121.066 1.354.733 2.868.733 1.514 0 1.97-.236 2.882-.733 15.909-8.679 30.624-17.804 43.868-27.154 11.732 8.991 25.685 18.097 42.289 27.154.116.064 1.09.733 2.868.733s1.969-.236 2.881-.733c34.335-18.729 60.497-39.475 77.87-61.691H424.118a6 6 0 0 0 5.266-8.878zm-24.196-36.8h-22.714l9.663-21.677h22.716l-9.665 21.677zm-48.905 33.676l-9.665-21.677h22.716l9.663 21.677h-22.714zm13.051-33.676h-22.716l9.665-21.677h22.714l-9.663 21.677zM184.55 324.58c-47.012-26.033-81.397-54.729-102.214-85.327-17.311-25.445-24.53-51.556-20.876-75.508 4.477-29.342 25.435-52.631 52.151-57.951 25.571-5.097 49.563 7.369 65.812 34.196l.005-.003a5.997 5.997 0 0 0 10.262.003c15.63-25.808 38.716-38.424 63.364-34.629 23.558 3.635 43.742 21.931 51.722 46.287-10.64 3.777-20.369 11.059-28.311 21.393-14.497-18.882-34.888-27.551-55.954-23.357-24.636 4.906-43.921 26.117-47.989 52.781-2.64 17.307-1.233 56.404 49.059 99.24-11.327 7.837-23.731 15.508-37.031 22.875zm91.903-.007c-91.78-51.056-95.007-101.041-92.068-120.298 3.309-21.69 18.769-38.899 38.47-42.823 18.801-3.741 36.467 5.48 48.476 25.309l.004-.003a5.999 5.999 0 0 0 10.263.003c11.864-19.59 29.328-28.859 47.911-25.416 17.157 3.175 31.334 16.587 37.007 34.314H352.39a6 6 0 0 0-5.48 3.557l-13.429 30.12h-57.017a6 6 0 1 0 0 12h57.017l12.64 28.35c-15.868 19.532-39.266 37.968-69.668 54.887zm115.684-61.561l-9.663-21.677h22.714l9.665 21.677h-22.716z" fill="#FFF"/></svg>