<svg xmlns="http://www.w3.org/2000/svg" id="Capa_1" width="512" height="512" viewBox="0 0 329.554 329.554"><g fill="#FFF"><path d="M177.876 129.113c17.747-3.672 34.884-17.748 47.734-29.376 12.24-11.628 22.646-28.764 12.24-44.676-8.567-13.464-25.704-17.748-40.392-12.24-14.076 4.896-23.868 16.524-29.988 29.988-4.284-15.912-12.853-31.824-28.765-37.944-14.688-5.508-31.824-1.836-38.556 13.464-13.464 29.988 16.524 61.2 45.289 75.888-49.572 2.448-96.696 36.72-107.101 86.904-12.852 62.424 31.212 110.16 91.801 117.504 60.588 7.344 119.34-29.376 125.46-92.412 5.509-49.572-29.374-98.532-77.722-107.1zm-63.649-51.408c-9.792-19.584 2.449-44.676 25.705-31.212 14.076 7.956 17.136 23.256 21.42 37.332 1.836 5.508 9.181 3.06 8.568-2.448v-.612c6.12-10.404 12.852-20.196 23.256-26.316 14.688-7.956 43.452-3.672 36.72 19.584-3.06 12.24-18.972 22.032-28.151 28.764-10.403 7.344-21.42 12.852-33.049 18.972-.61.612-1.224 1.224-1.836 1.836-20.808-10.404-41.617-23.869-52.633-45.9zm130.968 155.448c-4.896 54.468-52.632 88.128-105.264 85.066-58.141-3.06-105.876-48.96-90.577-110.159 12.852-52.632 63.036-73.44 111.384-78.949 0 1.224 0 2.448 1.836 3.06 47.126 13.466 87.518 48.35 82.621 100.982z"/><path d="M165.023 150.533c-.612 0-.612 0 0 0-1.224-.612-1.836-.612-2.448-.612-1.224 0-1.836-.612-3.06-.612h-.612c-92.412-9.792-134.64 138.925-32.436 155.448 44.676 7.344 85.68-16.522 91.8-62.424 5.508-39.78-11.627-83.844-53.244-91.8zm42.229 97.92c-7.956 37.332-44.677 53.244-79.561 47.124-41.004-6.732-62.424-42.84-50.184-82.62 11.628-36.108 42.84-53.245 77.724-57.528.612 1.224 1.224 1.836 2.448 2.448 42.841 7.956 58.14 51.408 49.573 90.576zM102.599 108.917c-11.628 2.448-23.868 3.672-36.108 6.732-3.06.612-2.448 4.896.612 5.508 12.852 1.224 25.092-2.448 36.72-7.344 3.06-1.225 2.448-5.508-1.224-4.896zM82.403 78.929c-11.628-3.06-23.868-7.344-35.496-9.792-3.672-.612-6.12 4.284-2.448 6.12 11.628 5.508 24.48 7.956 37.332 8.568 2.448 0 3.06-4.284.612-4.896zM92.807 38.537c-1.836-4.284-6.12-7.344-11.016-9.792-4.284-1.836-9.792-3.672-11.628-8.568-1.224-3.06-6.12-3.06-6.12.612 1.224 14.076 18.36 10.404 25.704 19.584 1.224 1.835 4.284 0 3.06-1.836zM150.947 18.34c-1.224-4.896-2.448-10.404-4.896-14.688-1.836-3.672-6.732-.612-6.12 2.448.611 4.896 3.06 9.18 4.896 14.076 1.836 3.673 7.344 1.837 6.12-1.836zM193.789 1.816c-4.284 7.956-6.732 15.912-8.568 25.092-.612 3.06 3.06 4.896 4.896 1.836 4.896-7.956 7.955-15.912 9.792-24.48 1.223-3.672-4.285-6.119-6.12-2.448zM261.107 9.772c-6.73 4.284-12.239 10.404-17.748 16.524-3.672 3.672 1.836 9.18 5.509 5.508 6.119-4.896 12.853-9.792 17.748-15.912 2.447-4.284-2.448-8.567-5.509-6.12zM290.483 57.508c-7.956-1.224-15.911 0-23.867 3.06-4.896 1.836-3.061 9.792 2.447 8.568 6.732-1.836 13.464-2.448 20.809-3.06 3.672-1.223 5.508-7.955.611-8.568zM285.588 113.201c-8.568-5.508-18.973-9.18-28.765-11.016-4.896-1.224-7.345 6.12-2.447 7.956 9.18 3.06 17.747 7.344 26.314 11.016 5.51 2.447 9.793-4.896 4.898-7.956z"/></g></svg>