<svg xmlns="http://www.w3.org/2000/svg" viewBox="0 0 470 470" width="512" height="512"><g fill="#FFF"><path d="M462.5 22.5H7.5A7.5 7.5 0 0 0 0 30v410a7.5 7.5 0 0 0 7.5 7.5h455a7.5 7.5 0 0 0 7.5-7.5v-80c0-4.142-3.357-7.5-7.5-7.5s-7.5 3.358-7.5 7.5v72.5H15v-335h440V330c0 4.142 3.357 7.5 7.5 7.5s7.5-3.358 7.5-7.5V30a7.5 7.5 0 0 0-7.5-7.5zM15 37.5h277.5v45H15v-45zm292.5 45v-45H455v45H307.5z"/><path d="M381.5 52c-4.411 0-8 3.589-8 8s3.589 8 8 8 8-3.589 8-8-3.589-8-8-8zM340.5 52c-4.411 0-8 3.589-8 8s3.589 8 8 8 8-3.589 8-8-3.589-8-8-8zM422.5 52c-4.411 0-8 3.589-8 8s3.589 8 8 8 8-3.589 8-8-3.589-8-8-8zM269.745 328.458a7.5 7.5 0 0 0 2.196 5.303l58.543 58.542a7.5 7.5 0 0 0 10.608 0l21.213-21.213a7.5 7.5 0 0 0 0-10.606l-58.542-58.542a7.5 7.5 0 0 0-10.607 0l-5.303 5.303-10.831-10.831c32.824-38.264 31.15-96.129-5.079-132.358-18.416-18.416-42.9-28.557-68.943-28.557s-50.527 10.142-68.943 28.557c-38.015 38.015-38.015 99.871 0 137.886 18.416 18.416 42.9 28.557 68.943 28.557 23.527 0 45.78-8.279 63.438-23.455l10.807 10.808-5.303 5.303a7.499 7.499 0 0 0-2.197 5.303zm-125.082-37.123c-32.167-32.167-32.167-84.506 0-116.673 15.582-15.582 36.3-24.164 58.336-24.164s42.754 8.582 58.336 24.164c32.167 32.167 32.167 84.506 0 116.673-15.582 15.582-36.3 24.164-58.336 24.164s-42.754-8.582-58.336-24.164zm201.732 74.453l-10.606 10.607-47.937-47.936 5.301-5.301 5.306-5.306 47.936 47.936z"/><path d="M250.729 185.27c-12.75-12.749-29.7-19.771-47.73-19.771s-34.98 7.021-47.73 19.771c-26.317 26.318-26.317 69.141 0 95.459 12.75 12.749 29.7 19.771 47.73 19.771s34.98-7.021 47.73-19.771c26.318-26.318 26.318-69.142 0-95.459zm-10.607 84.852c-9.916 9.916-23.1 15.377-37.123 15.377s-27.207-5.461-37.123-15.377c-20.47-20.47-20.47-53.776 0-74.246 9.916-9.916 23.1-15.377 37.123-15.377s27.207 5.461 37.123 15.377c20.47 20.47 20.47 53.776 0 74.246z"/></g></svg>