<svg xmlns="http://www.w3.org/2000/svg" id="Capa_1" width="512" height="512" viewBox="0 0 388.004 388.004"><path d="M336.864 281.809c-6.732 0-14.076.611-20.81 1.225 0-24.479 1.226-64.872-18.972-79.561-4.896-3.672-10.404-4.896-16.523-5.509v-.611c0-24.479 1.836-63.035-26.929-70.379h-1.224c1.224-15.3 3.672-39.168-4.896-50.184-3.672-4.896-10.402-7.344-17.748-7.344 17.137-14.076 23.868-48.348 7.346-63.036-18.36-15.912-37.944.612-44.065 18.972-2.448-7.344-7.344-14.076-14.688-17.136-12.24-5.508-27.54 2.448-34.884 12.852-7.956 11.628-4.896 26.316 3.672 36.72 5.508 6.732 12.852 11.016 20.808 13.464-11.016.612-21.42 3.672-28.152 10.404-11.016 11.016-6.12 33.66-4.896 47.736v.612c-5.508 1.224-11.016 2.448-17.136 3.672-1.836 0-3.672.612-4.896 1.224-.612 0-.612 0-1.224.612-.612 0-.612.612-.612 1.224-10.404 11.628-6.732 51.408-6.12 59.362 0 .612.612 1.836.612 1.836-7.344 2.448-14.688 5.509-20.196 10.404-21.42 18.359-17.748 55.08-14.688 80.172H50.447c-13.464 0-12.852 19.584 0 20.809 44.064 3.061 88.74 3.672 133.416 3.061-1.224 7.956-1.224 15.912-1.836 23.868 0 8.567-1.224 17.748 0 26.315-20.808 0-41.004.611-59.364 6.119-6.732 1.837-6.732 11.628 0 13.465 35.496 9.792 79.561 4.283 116.281 4.283 14.075 0 14.075-22.031 0-22.031-11.629 0-23.868-.611-36.108-1.225 1.225-8.567.612-18.359.612-26.928 0-7.956 0-16.524-.612-24.48 44.676-1.224 89.964-4.283 134.028-7.344 14.688-1.836 13.464-21.42 0-22.643zM149.592 40.682c-2.448-10.404 8.568-28.764 21.42-26.928 15.3 1.836 16.524 17.136 20.196 28.764.612 2.448 4.897 2.448 4.897-.612V40.07c1.836-8.568 4.283-18.36 11.017-24.48 9.18-8.568 23.868-7.344 28.764 5.508 6.732 17.748-7.344 30.6-14.075 45.288 0 .612-.611 1.224 0 1.836-9.792.612-20.195 2.448-26.929 2.448h-8.568c-14.078-6.732-33.05-12.853-36.722-29.988zm-1.836 43.451c11.628-9.792 36.72-6.12 51.408-6.732 14.076-.612 29.376-4.284 39.168 5.508 3.061 3.06 4.896 7.344 6.12 12.24-3.062 5.508-10.404 7.344-12.24 0-1.224-4.896-7.956-3.06-7.956 1.224-.611 4.896-4.284 7.344-8.567 5.508-3.672-1.224-4.896-3.06-6.119-6.732-.612-1.836-3.062-1.836-3.673-.612-1.225-.612-3.061-.612-4.283 1.224-1.836 3.06-3.062 6.12-6.732 6.732-4.896.612-7.344-2.448-7.956-6.732-.612-3.672-6.732-3.672-7.344 0-.612 1.836-.612 3.672-1.836 5.508-.612 1.224-1.224 2.448-2.448 3.06-2.448 3.672-4.896 1.836-7.956-3.672.612-2.448-1.836-3.672-3.672-3.06 0-.612 0-1.224-.612-1.224-1.224-2.448-4.896-1.836-5.508.612-1.224 2.448-1.224 5.508-3.06 7.956-2.448 2.448-5.508 3.06-8.568 2.448-2.448-.612-3.672-2.448-5.508-4.284-.002-7.956 2.446-14.688 7.342-18.972zm2.448 29.989c4.284 0 9.18-3.06 11.628-7.344 1.224 3.06 4.284 5.508 8.568 6.12 5.508.612 9.792-2.448 12.24-6.732 3.06 3.06 6.732 4.896 11.016 4.896 4.896 0 10.405-3.06 12.241-7.344 4.283 7.956 16.523 8.568 22.645 1.836 4.896 4.284 12.24 4.896 17.136 2.448 0 5.508 0 11.628-.611 16.524-18.359-3.06-38.557-.612-56.305 0-16.524.612-33.048 1.224-48.96 3.672 0-4.896-.612-11.628-.612-17.748 3.058 2.447 6.729 3.672 11.014 3.672zm-28.152 22.644c28.152-.612 56.304-4.284 85.068-4.284 12.852 0 28.151-1.836 41.004 2.448h.612c7.344 2.448 14.688 7.344 19.584 15.3.61 1.224 1.836 3.06 2.447 4.896 0 0-.611 0-.611.612-1.226 1.224-6.732 7.344-7.345 7.344-7.345 2.448-13.465-1.224-14.688-9.18-1.225-6.12-9.18-3.672-9.792 1.224-7.956 10.404-13.464 9.792-16.523-1.836 0-2.448-3.061-3.672-4.896-1.836-1.836 0-3.061 1.224-3.672 2.448-1.226 3.06-1.226 5.508-3.672 7.956-4.284 4.896-13.465 4.284-14.688-4.896-.612-4.896-8.568-6.732-9.18-1.224-.612 3.06-1.224 6.12-3.672 8.568-4.896 3.672-14.076 1.836-13.464-6.12 0-1.836-1.836-3.06-3.06-2.448-1.836-1.224-4.896-.612-5.508 1.836-1.224 4.284-2.448 7.344-6.732 9.18-5.508 2.448-11.628-.612-12.852-7.956-.612-4.284-6.732-6.12-8.568-1.224-.612 3.06-1.836 5.508-3.672 7.344-7.344 3.672-11.628 2.448-12.852-3.672 0-.612-.612-1.224-.612-1.224-1.224-9.181 0-19.584 7.344-23.256zm-8.568 36.719c1.836 1.224 4.284 2.448 7.344 2.448 6.12.612 11.016-2.448 14.076-7.344 3.672 4.896 8.568 7.956 15.3 7.344 5.508-.612 10.404-3.672 12.852-7.956 1.836 3.672 5.508 6.732 10.404 7.344 6.732 1.224 12.24-1.836 15.912-6.732 3.672 4.284 9.18 7.344 15.3 6.12 5.508-.612 11.017-4.284 13.464-9.18 5.509 7.344 16.524 7.956 23.868 1.224 3.672 4.896 9.18 7.956 15.3 7.956 5.509 0 11.018-2.448 14.688-6.732 1.224 9.792.611 21.42.611 29.374-2.447 0-4.896 0-7.345-.611-25.092-1.225-49.571-2.447-74.664-2.447-21.42-.611-52.02-4.284-77.112 1.224.002-7.344-.61-14.687.002-22.032zm-3.06 33.661c26.928-6.732 58.752-3.673 86.292-3.062 29.376.612 64.872-4.283 89.353 12.853 14.076 9.793 16.523 17.748 17.748 29.987-.611 0-1.225.612-1.836 1.226-6.119 6.119-8.567-1.226-10.403-6.732-1.836-4.896-9.181-5.508-10.404 0-.611 3.061-1.224 5.509-3.672 7.956-3.672 3.672-9.792 1.836-9.792-4.284 0-3.06-3.061-4.283-5.508-3.06-.612-1.225-1.836-1.836-3.062-2.448-1.836-1.224-4.283-.611-4.896 1.225-.612.611-1.225 3.672-1.836 4.283-6.12 8.568-13.464 6.732-17.137-3.06-2.447-6.12-10.403-4.896-11.017 1.224-1.224 13.465-17.136 10.404-20.195.612-.611-2.448-2.447-3.061-4.283-2.448-1.836-3.06-6.122-3.672-7.958 0-1.224 2.448-1.836 4.284-3.672 6.12-2.448 3.672-4.896 3.672-7.956 1.225-4.284 0-6.12-1.837-6.12-5.509-1.224-5.508-9.18-4.896-10.404 0-3.672 13.465-18.972 13.465-25.704 1.836-.612-.611-1.224-1.224-1.836-1.224-1.836-1.225-3.672-.612-4.896 1.224-2.448 4.284-1.836 3.673-7.956 6.732-4.284 4.896-7.344 4.284-8.568-.612-1.836-1.836-2.448-3.06-2.448-5.508v-1.225c.612-4.896-6.12-4.896-7.956-1.225-1.836 3.672-4.284 8.568-7.344 11.017-6.12 4.896-17.136 4.896-19.584-4.283 3.062-19.586 10.406-37.334 33.05-42.84zM77.988 288.54c0-9.18-.612-18.972 0-29.376 3.06 3.061 7.344 5.508 12.24 5.508 7.344 0 13.464-3.672 17.136-9.18 2.448 4.896 6.732 8.567 12.852 9.18 7.344.612 15.3-3.672 17.748-10.403 7.956 9.792 22.032 9.181 30.6 1.225 3.06 4.284 8.568 7.344 14.688 6.731 6.12-.611 11.628-4.283 14.689-9.181 6.12 12.854 23.257 12.24 31.823 2.448 5.509 6.731 13.465 10.403 22.646 6.731 3.06-1.225 6.73-4.283 8.567-7.956 2.447 4.284 7.345 7.345 12.853 7.345 4.896 0 9.18-2.448 12.24-6.12 2.446 3.061 5.508 5.508 9.792 6.12 3.06.611 6.73 0 9.18-1.836v.611c.612 7.956 1.836 15.3 3.061 23.256-76.503 4.897-153.615 4.897-230.115 4.897z" fill="#FFF"/></svg>