<svg id="Capa_1" xmlns="http://www.w3.org/2000/svg" viewBox="0 0 48 48"><circle cx="24" cy="27" r="21" fill="#fbd971"/><path d="M40 13.417V1c-1.143 4.342-3.538 6.96-4.932 8.177a20.902 20.902 0 0 0-20.845-.755C12.9 7.337 10.228 4.667 9 0v12.317C5.292 16.104 3 21.282 3 27l18.59 7.082a6.77 6.77 0 0 0 4.819 0L45 27a20.9 20.9 0 0 0-5-13.583z" fill="#556080"/><path fill="#fff" d="M20 22l-1.214 2.01L17 27l-9-8zM28 22l1.192 2.01L31 27l9-8z"/><path d="M29 42H19a1 1 0 1 1 0-2h10a1 1 0 1 1 0 2z" fill="#f0c419"/></svg>