<svg xmlns="http://www.w3.org/2000/svg" id="Layer_1" viewBox="0 0 512.001 512.001" width="512" height="512"><path d="M279.454 245.733h-28.22c-9.481 0-17.192-7.713-17.192-17.192v-6.881c0-11.886-9.67-21.556-21.557-21.556H106.456c-11.886 0-21.557 9.67-21.557 21.556v6.881c0 9.479-7.713 17.192-17.192 17.192h-28.22C17.714 245.733 0 263.448 0 285.22v33.746a8.454 8.454 0 0 0 8.455 8.455 8.454 8.454 0 0 0 8.455-8.455V285.22c0-12.45 10.129-22.578 22.578-22.578h28.22c18.804 0 34.102-15.297 34.102-34.102v-6.881a4.654 4.654 0 0 1 4.648-4.647h106.029a4.654 4.654 0 0 1 4.648 4.647v6.881c0 18.804 15.299 34.102 34.102 34.102h28.22c12.449 0 22.578 10.128 22.578 22.578v154.966c0 12.45-10.129 22.578-22.579 22.578H39.487c-12.449 0-22.578-10.128-22.578-22.578v-69.861a8.454 8.454 0 0 0-8.455-8.455 8.454 8.454 0 0 0-8.455 8.455v69.861c0 21.773 17.714 39.487 39.487 39.487h239.967c21.774 0 39.488-17.714 39.488-39.487V285.22c.001-21.772-17.713-39.487-39.487-39.487z" fill="#FFF"/><path d="M159.471 282.728c-41.854 0-75.904 34.051-75.904 75.906s34.051 75.904 75.904 75.904c41.853 0 75.904-34.05 75.904-75.904s-34.051-75.906-75.904-75.906zm-.001 134.9c-32.529 0-58.995-26.466-58.995-58.995 0-32.53 26.466-58.996 58.995-58.996s58.995 26.466 58.995 58.996-26.466 58.995-58.995 58.995zM270.962 285.149c-4.976 0-9.024 4.048-9.024 9.024s4.048 9.024 9.024 9.024c4.976 0 9.024-4.048 9.024-9.024s-4.048-9.024-9.024-9.024zM378.469 32.327h-257.01a8.454 8.454 0 0 0-8.455 8.455v127.57a8.454 8.454 0 0 0 8.455 8.455 8.454 8.454 0 0 0 8.455-8.455V49.236h240.101v71.768a8.454 8.454 0 0 0 8.455 8.455 8.454 8.454 0 0 0 8.455-8.455V40.781a8.456 8.456 0 0 0-8.456-8.454z" fill="#FFF"/><path d="M341.913 68.21H157.187a8.454 8.454 0 0 0-8.455 8.455v93.941a8.454 8.454 0 0 0 8.455 8.455 8.454 8.454 0 0 0 8.455-8.455V85.119h167.816v25.364a8.455 8.455 0 0 0 16.91 0V76.665a8.454 8.454 0 0 0-8.455-8.455z" fill="#FFF"/><path d="M506.595 200.46l-239.683-92.772a8.454 8.454 0 0 0-10.936 4.833l-23.58 60.917a8.453 8.453 0 0 0 4.833 10.936 8.454 8.454 0 0 0 10.937-4.833l20.527-53.033 223.913 86.669-86.668 223.914-61.415-23.771c-4.35-1.685-9.251.479-10.936 4.833a8.453 8.453 0 0 0 4.833 10.936l69.3 26.823a8.419 8.419 0 0 0 3.05.573 8.46 8.46 0 0 0 7.887-5.405l92.772-239.683a8.456 8.456 0 0 0-4.834-10.937z" fill="#FFF"/><path d="M464.232 225.194a8.453 8.453 0 0 0-4.682-4.467l-172.272-66.679a8.447 8.447 0 0 0-6.556.19 8.458 8.458 0 0 0-4.447 4.821l-21.725 60.154a8.455 8.455 0 0 0 5.08 10.824 8.453 8.453 0 0 0 10.824-5.08l18.788-52.02 156.321 60.505-46.989 121.399-56.49-21.865a8.454 8.454 0 0 0-10.936 4.833 8.453 8.453 0 0 0 4.833 10.936l64.374 24.918c4.117 1.596 9.263-.507 10.936-4.833l53.092-137.169a8.453 8.453 0 0 0-.151-6.467z" fill="#FFF"/></svg>