<svg id="Capa_1" xmlns="http://www.w3.org/2000/svg" viewBox="0 0 42 42"><path d="M42 21c0 11.598-9.402 21-21 21S0 32.598 0 21C0 12.623 4.905 5.391 12 2.021A20.916 20.916 0 0 1 21 0c11.598 0 21 9.402 21 21z" fill="#e64c3c"/><path d="M29.988 2.042c-14.467 24.91 3.568 32.991 5.789 33.873A20.931 20.931 0 0 0 42 21c0-8.377-4.917-15.587-12.012-18.958zM0 21a20.932 20.932 0 0 0 6.184 14.879L7 36s20.416-7.458 5-33.979C4.905 5.391 0 12.623 0 21z" fill="#556080"/><ellipse transform="rotate(38.512 8.973 20)" cx="8.973" cy="20" rx="5.5" ry="4" fill="#fefefe"/><ellipse transform="scale(-1) rotate(-38.512 -57.25 94.386)" cx="32.973" cy="20" rx="5.5" ry="4" fill="#fefefe"/></svg>