<?xml version="1.0" encoding="iso-8859-1"?>
<!-- Generator: Adobe Illustrator 19.0.0, SVG Export Plug-In . SVG Version: 6.00 Build 0)  -->
<svg xmlns="http://www.w3.org/2000/svg" xmlns:xlink="http://www.w3.org/1999/xlink" version="1.1" id="Layer_1" x="0px" y="0px" viewBox="0 0 512 512" style="enable-background:new 0 0 512 512;" xml:space="preserve" width="512px" height="512px">
<g>
	<g>
		<path d="M437.019,74.98C388.667,26.628,324.381,0,256,0S123.333,26.628,74.982,74.98C26.628,123.333,0,187.62,0,256    c0,41.588,10.178,82.76,29.468,119.331L1.393,498.393c-0.779,3.42,0.252,7,2.732,9.48c2.48,2.48,6.064,3.513,9.48,2.732    l123.065-28.073C173.239,501.822,214.411,512,256,512c68.381,0,132.667-26.628,181.019-74.98C485.372,388.667,512,324.38,512,256    S485.372,123.333,437.019,74.98z M256,491.602c-39.484,0-78.55-9.963-112.971-28.809c-1.514-0.828-3.198-1.253-4.899-1.253    c-0.759,0-1.52,0.085-2.267,0.255L24.891,487.109l25.314-110.97c0.553-2.43,0.199-4.979-0.998-7.166    C30.361,334.549,20.398,295.484,20.398,256c0-129.911,105.69-235.602,235.602-235.602S491.602,126.089,491.602,256    S385.911,491.602,256,491.602z" fill="#FFFFFF"/>
	</g>
</g>
<g>
	<g>
		<path d="M229.388,331.474h-77.721l84.952-85.44c2.906-2.922,3.768-7.305,2.186-11.108c-1.581-3.804-5.297-6.283-9.417-6.283    H127.143c-5.632,0-10.199,4.566-10.199,10.199c0,5.633,4.567,10.199,10.199,10.199h77.722l-84.953,85.44    c-2.906,2.922-3.768,7.305-2.186,11.108c1.581,3.804,5.297,6.283,9.417,6.283h102.245c5.633,0,10.199-4.566,10.199-10.199    C239.587,336.04,235.02,331.474,229.388,331.474z" fill="#FFFFFF"/>
	</g>
</g>
<g>
	<g>
		<path d="M379.41,281.228H278.452l108.19-108.809c2.906-2.922,3.768-7.305,2.186-11.108c-1.581-3.804-5.297-6.283-9.417-6.283    H253.927c-5.632,0-10.199,4.566-10.199,10.199c0,5.633,4.567,10.199,10.199,10.199h100.959l-108.19,108.809    c-2.906,2.922-3.768,7.305-2.186,11.108c1.581,3.804,5.297,6.283,9.417,6.283H379.41c5.632,0,10.199-4.566,10.199-10.199    C389.61,285.794,385.042,281.228,379.41,281.228z" fill="#FFFFFF"/>
	</g>
</g>
<g>
	<g>
		<path d="M446.973,349.052c-4.935-2.711-11.137-0.909-13.849,4.029c-19.704,35.869-49.396,64.611-85.865,83.118    c-5.023,2.55-7.029,8.688-4.479,13.711c1.798,3.545,5.384,5.586,9.103,5.586c1.552,0,3.128-0.356,4.607-1.107    c40.143-20.372,72.825-52.008,94.513-91.487C453.714,357.966,451.91,351.764,446.973,349.052z" fill="#FFFFFF"/>
	</g>
</g>
<g>
	<g>
		<path d="M321.933,457.958c-1.485-5.433-7.091-8.631-12.528-7.148c-5.737,1.569-11.615,2.898-17.47,3.948    c-5.543,0.994-9.232,6.296-8.237,11.84c0.885,4.935,5.183,8.399,10.027,8.399c0.598,0,1.205-0.053,1.813-0.161    c6.451-1.159,12.927-2.622,19.247-4.35C320.218,469,323.419,463.391,321.933,457.958z" fill="#FFFFFF"/>
	</g>
</g>
<g>
</g>
<g>
</g>
<g>
</g>
<g>
</g>
<g>
</g>
<g>
</g>
<g>
</g>
<g>
</g>
<g>
</g>
<g>
</g>
<g>
</g>
<g>
</g>
<g>
</g>
<g>
</g>
<g>
</g>
</svg>
