<svg xmlns="http://www.w3.org/2000/svg" id="Capa_1" viewBox="0 0 453.859 453.859" width="512" height="512"><g fill="#FFF"><path d="M448.359 204.616h-10.621l-2.538-56.678 14.614-23.027c.56-.881.856-1.903.856-2.947V65.488a5.5 5.5 0 0 0-5.5-5.5h-15.217a5.5 5.5 0 0 0-5.5 5.5v14.25h-10.821v-14.25a5.5 5.5 0 0 0-5.5-5.5h-30.434a5.5 5.5 0 0 0-5.5 5.5v14.25h-9.735v-14.25a5.5 5.5 0 0 0-5.5-5.5h-30.435a5.5 5.5 0 0 0-5.5 5.5v14.25h-10.82v-14.25a5.5 5.5 0 0 0-5.5-5.5h-15.217a5.5 5.5 0 0 0-5.5 5.5v56.476c0 1.043.297 2.066.856 2.947l14.609 23.021-2.538 56.685h-.155a5.5 5.5 0 0 0-5.5 5.5v15.263h-12.164v-15.263a5.5 5.5 0 0 0-5.5-5.5H238.51a5.5 5.5 0 0 0-5.5 5.5v15.263h-12.164v-15.263a5.5 5.5 0 0 0-5.5-5.5h-35.089a5.5 5.5 0 0 0-5.5 5.5v15.263h-12.164v-15.263a5.5 5.5 0 0 0-5.5-5.5h-.157l-2.537-56.685 14.609-23.021c.56-.881.856-1.903.856-2.947V65.488a5.5 5.5 0 0 0-5.5-5.5h-15.217a5.5 5.5 0 0 0-5.5 5.5v14.25h-10.82v-14.25a5.5 5.5 0 0 0-5.5-5.5H96.896a5.5 5.5 0 0 0-5.5 5.5v14.25H81.66v-14.25a5.5 5.5 0 0 0-5.5-5.5H45.726a5.5 5.5 0 0 0-5.5 5.5v14.25h-10.82v-14.25a5.5 5.5 0 0 0-5.5-5.5H8.688a5.5 5.5 0 0 0-5.5 5.5v56.476c0 1.043.297 2.066.856 2.947l14.613 23.027-2.538 56.679H5.5a5.5 5.5 0 0 0-5.5 5.5v178.255a5.5 5.5 0 0 0 5.5 5.5h442.86a5.5 5.5 0 0 0 5.5-5.5V210.116a5.502 5.502 0 0 0-5.501-5.5zm-21.75-63.669H308.053l-8.557-13.484h135.67l-8.557 13.484zm-127.4-69.959v14.25a5.5 5.5 0 0 0 5.5 5.5h21.82a5.5 5.5 0 0 0 5.5-5.5v-14.25h19.435v14.25a5.5 5.5 0 0 0 5.5 5.5h20.735a5.5 5.5 0 0 0 5.5-5.5v-14.25h19.434v14.25a5.5 5.5 0 0 0 5.5 5.5h21.821a5.5 5.5 0 0 0 5.5-5.5v-14.25h4.217v45.476H294.992V70.988h4.217zm11.08 80.96h114.08l2.359 52.668H413.27a5.5 5.5 0 0 0-5.5 5.5v15.263h-12.164v-15.263a5.5 5.5 0 0 0-5.5-5.5h-35.089a5.5 5.5 0 0 0-5.5 5.5v15.263h-12.164v-15.263a5.5 5.5 0 0 0-5.5-5.5H307.93l2.359-52.668zm-164.483-11.001H27.249l-8.557-13.484h135.67l-8.556 13.484zM18.405 70.988v14.25a5.5 5.5 0 0 0 5.5 5.5h21.82a5.5 5.5 0 0 0 5.5-5.5v-14.25h19.434v14.25a5.5 5.5 0 0 0 5.5 5.5h20.736a5.5 5.5 0 0 0 5.5-5.5v-14.25h19.434v14.25a5.5 5.5 0 0 0 5.5 5.5h21.82a5.5 5.5 0 0 0 5.5-5.5v-14.25h4.217v45.476H14.188V70.988h4.217zm11.084 80.96h114.08l2.358 52.668h-23.921a5.5 5.5 0 0 0-5.5 5.5v15.263h-12.165v-15.263a5.5 5.5 0 0 0-5.5-5.5H63.753a5.5 5.5 0 0 0-5.5 5.5v15.263H46.089v-15.263a5.5 5.5 0 0 0-5.5-5.5H27.13l2.359-52.668zm249.94 230.924h-6.999v-53.384c0-25.089-20.411-45.5-45.5-45.5s-45.5 20.411-45.5 45.5v53.384h-7.001v-53.384c0-28.949 23.552-52.5 52.5-52.5s52.5 23.551 52.5 52.5v53.384zm-86.999 0v-53.384c0-19.023 15.477-34.5 34.5-34.5s34.5 15.477 34.5 34.5v53.384h-69zm250.429 0h-152.43v-53.384c0-35.014-28.486-63.5-63.5-63.5s-63.5 28.486-63.5 63.5v53.384H11V215.616h24.089v15.263a5.5 5.5 0 0 0 5.5 5.5h23.164a5.5 5.5 0 0 0 5.5-5.5v-15.263h24.088v15.263a5.5 5.5 0 0 0 5.5 5.5h23.165a5.5 5.5 0 0 0 5.5-5.5v-15.263h24.089v15.263a5.5 5.5 0 0 0 5.5 5.5h23.164a5.5 5.5 0 0 0 5.5-5.5v-15.263h24.089v15.263a5.5 5.5 0 0 0 5.5 5.5h23.164a5.5 5.5 0 0 0 5.5-5.5v-15.263h24.089v15.263a5.5 5.5 0 0 0 5.5 5.5h23.164a5.5 5.5 0 0 0 5.5-5.5v-15.263h24.089v15.263a5.5 5.5 0 0 0 5.5 5.5h23.164a5.5 5.5 0 0 0 5.5-5.5v-15.263h24.089v15.263a5.5 5.5 0 0 0 5.5 5.5h23.164a5.5 5.5 0 0 0 5.5-5.5v-15.263h24.089v167.256z"/><path d="M77.529 195.988h18a5.5 5.5 0 0 0 5.5-5.5v-18c0-7.995-6.505-14.5-14.5-14.5s-14.5 6.505-14.5 14.5v18a5.5 5.5 0 0 0 5.5 5.5zm5.5-23.5c0-1.93 1.57-3.5 3.5-3.5s3.5 1.57 3.5 3.5v12.5h-7v-12.5zM62.93 281.488v-18c0-7.995-6.505-14.5-14.5-14.5s-14.5 6.505-14.5 14.5v18a5.5 5.5 0 0 0 5.5 5.5h18a5.5 5.5 0 0 0 5.5-5.5zm-11-5.5h-7v-12.5c0-1.93 1.57-3.5 3.5-3.5s3.5 1.57 3.5 3.5v12.5zM147.43 248.988c-7.995 0-14.5 6.505-14.5 14.5v18a5.5 5.5 0 0 0 5.5 5.5h18a5.5 5.5 0 0 0 5.5-5.5v-18c0-7.995-6.505-14.5-14.5-14.5zm3.5 27h-7v-12.5c0-1.93 1.57-3.5 3.5-3.5s3.5 1.57 3.5 3.5v12.5zM306.43 248.988c-7.995 0-14.5 6.505-14.5 14.5v18a5.5 5.5 0 0 0 5.5 5.5h18a5.5 5.5 0 0 0 5.5-5.5v-18c0-7.995-6.505-14.5-14.5-14.5zm3.5 27h-7v-12.5c0-1.93 1.57-3.5 3.5-3.5s3.5 1.57 3.5 3.5v12.5zM405.43 248.988c-7.995 0-14.5 6.505-14.5 14.5v18a5.5 5.5 0 0 0 5.5 5.5h18a5.5 5.5 0 0 0 5.5-5.5v-18c0-7.995-6.505-14.5-14.5-14.5zm3.5 27h-7v-12.5c0-1.93 1.57-3.5 3.5-3.5s3.5 1.57 3.5 3.5v12.5zM358.329 195.988h18a5.5 5.5 0 0 0 5.5-5.5v-18c0-7.995-6.505-14.5-14.5-14.5s-14.5 6.505-14.5 14.5v18a5.5 5.5 0 0 0 5.5 5.5zm5.5-23.5c0-1.93 1.57-3.5 3.5-3.5s3.5 1.57 3.5 3.5v12.5h-7v-12.5zM69.859 322.488a5.5 5.5 0 0 0-5.5-5.5h-13a5.5 5.5 0 0 0 0 11h13a5.5 5.5 0 0 0 5.5-5.5zM76.359 331.988h-13a5.5 5.5 0 0 0 0 11h13a5.5 5.5 0 0 0 0-11zM360.359 281.988a5.5 5.5 0 0 0 0-11h-13a5.5 5.5 0 0 0 0 11h13zM401.859 334.488a5.5 5.5 0 0 0 5.5 5.5h13a5.5 5.5 0 0 0 0-11h-13a5.5 5.5 0 0 0-5.5 5.5zM380.359 348.988h-13a5.5 5.5 0 0 0 0 11h13a5.5 5.5 0 0 0 0-11zM362.359 361.988h-13a5.5 5.5 0 0 0 0 11h13a5.5 5.5 0 0 0 0-11zM193.359 250.988h-13a5.5 5.5 0 0 0 0 11h13a5.5 5.5 0 0 0 0-11zM52.359 173.988a5.5 5.5 0 0 0 0-11h-11a5.5 5.5 0 0 0 0 11h11zM117.359 192.988h11a5.5 5.5 0 0 0 0-11h-11a5.5 5.5 0 0 0 0 11zM398.359 178.988h11a5.5 5.5 0 0 0 0-11h-11a5.5 5.5 0 0 0 0 11zM378.359 109.988h11a5.5 5.5 0 0 0 0-11h-11a5.5 5.5 0 0 0 0 11zM104.359 110.988h11a5.5 5.5 0 0 0 0-11h-11a5.5 5.5 0 0 0 0 11z"/></g></svg>