<svg xmlns="http://www.w3.org/2000/svg" id="Capa_1" width="512" height="512" viewBox="0 0 29.894 29.895"><g fill="#FFF" id="Icons_7_"><path d="M14.308 13.048c.355.35.924.35 1.28 0 1.22-1.203 3.813-3.803 4.451-4.792.908-1.406 1.812-2.566 1.812-4.591S20.211 0 18.186 0a3.65 3.65 0 0 0-3.24 1.987C14.336.812 13.123 0 11.707 0 9.682 0 8.042 1.64 8.042 3.665s.905 3.185 1.812 4.591c.641.988 3.234 3.589 4.454 4.792zM15.587 16.848a.91.91 0 0 0-1.28 0c-1.22 1.202-3.813 3.804-4.452 4.791-.907 1.406-1.813 2.566-1.813 4.593a3.663 3.663 0 0 0 3.665 3.663c1.416 0 2.63-.812 3.24-1.985a3.65 3.65 0 0 0 3.24 1.985 3.664 3.664 0 0 0 3.665-3.663c0-2.025-.904-3.187-1.812-4.593-.638-.989-3.233-3.59-4.453-4.791zM27.908 14.947a3.65 3.65 0 0 0 1.985-3.24 3.665 3.665 0 0 0-3.664-3.666c-2.024 0-3.186.906-4.592 1.813-.987.639-3.59 3.232-4.792 4.452a.908.908 0 0 0 0 1.279c1.202 1.22 3.805 3.813 4.792 4.453 1.406.907 2.566 1.812 4.592 1.812a3.666 3.666 0 0 0 3.664-3.666c.003-1.413-.81-2.627-1.985-3.237zM13.048 15.587a.911.911 0 0 0 0-1.28c-1.203-1.22-3.804-3.813-4.792-4.452-1.405-.907-2.566-1.813-4.589-1.813a3.665 3.665 0 0 0-3.665 3.666c0 1.416.813 2.63 1.987 3.24-1.175.61-1.987 1.823-1.987 3.239a3.666 3.666 0 0 0 3.665 3.665c2.024 0 3.185-.905 4.59-1.812.988-.64 3.588-3.233 4.791-4.453z"/></g></svg>