<svg xmlns="http://www.w3.org/2000/svg" viewBox="0 0 463 463" width="512" height="512"><g fill="#FFF"><path d="M366.103 366.618l-42.496-11.59c15.236-13.959 27.37-31.413 34.922-51.385 9.296-24.585-1.419-43.949-10.873-61.034C341.147 230.848 335 219.738 335 207.5a7.47 7.47 0 0 0-.146-1.467c20.62-4.008 38.327-9.258 51.815-15.549a7.5 7.5 0 0 0 3.627-9.967 7.5 7.5 0 0 0-9.967-3.627c-11.599 5.41-27.017 10.039-45.024 13.705 1.379-25.969 7.653-91.649 23.161-155.059 2.412-9.86-3.716-19.985-13.66-22.571C322.053 7.051 283.925 0 231.5 0s-90.553 7.051-113.307 12.966c-9.943 2.585-16.071 12.711-13.66 22.571 15.508 63.41 21.783 129.091 23.161 155.059-18.007-3.666-33.425-8.295-45.024-13.705a7.5 7.5 0 0 0-6.34 13.594c13.488 6.291 31.196 11.541 51.815 15.549a7.54 7.54 0 0 0-.146 1.467c0 12.238-6.147 23.348-12.656 35.109-9.454 17.084-20.169 36.449-10.873 61.034 7.551 19.972 19.685 37.426 34.922 51.385l-42.496 11.59C72.817 373.185 56 395.203 56 420.162v19.407C56 452.489 67.526 463 81.693 463h299.613C395.474 463 407 452.489 407 439.569v-19.407c0-24.959-16.817-46.977-40.897-53.544zm-56.577.118l37.818 10.314-30.319 30.319c-4.484 4.484-4.484 11.78 0 16.264l7.868 7.868-16.5 16.5H239v-25h.5c5.033 0 9.5-2.422 12.333-6.15l30.766 10.255a15.534 15.534 0 0 0 13.964-2.13A15.538 15.538 0 0 0 303 412.402V386.6c0-4.868-2.32-9.468-6.205-12.385a137.598 137.598 0 0 0 12.33-7.611c.133.045.264.094.401.132zm-133.868 46.139c-.079.026-.244.081-.45-.069-.208-.15-.208-.323-.208-.406v-25.8c0-.083 0-.256.208-.406a.449.449 0 0 1 .45-.069L208 396.906v5.188l-32.342 10.781zM223 407.367v-15.712-.155a.5.5 0 0 1 .5-.5h16a.5.5 0 0 1 .5.5v16.002a.5.5 0 0 1-.5.5h-16a.5.5 0 0 1-.5-.5v-.135zm32-10.461l32.342-10.781a.446.446 0 0 1 .45.069c.208.15.208.323.208.406v25.8c0 .083 0 .256-.208.406a.449.449 0 0 1-.45.069L255 402.094v-5.188zm48-77.406V311h17v8.5c0 4.687-3.813 8.5-8.5 8.5s-8.5-3.813-8.5-8.5zm41.499-21.162A117.754 117.754 0 0 1 335 317.785V303.5a7.5 7.5 0 0 0-7.5-7.5h-2.794c6.334-14.114 9.844-29.537 10.254-45.354 8.833 15.971 16.27 29.887 9.539 47.692zM263 199.206V174.04c20.879-1.014 40.646-3.01 58.946-5.961-.952 10.683-1.521 19.344-1.779 25.27-17.499 2.834-36.853 4.832-57.167 5.857zm-48 .294v-32a.5.5 0 0 1 .5-.5h32a.5.5 0 0 1 .5.5v8.5h-16.5a7.5 7.5 0 0 0 0 15H248v8.5c0 .095.011.188.014.282-5.46.143-10.969.218-16.514.218s-11.055-.075-16.514-.218c.003-.094.014-.187.014-.282zM121.967 27.483C143.874 21.789 180.66 15 231.5 15s87.626 6.789 109.533 12.483c2.088.543 3.347 2.515 2.864 4.49-10.613 43.395-16.979 87.982-20.439 120.641-19.326 3.306-40.453 5.495-62.927 6.522-2.76-4.286-7.564-7.136-13.03-7.136h-32c-5.466 0-10.269 2.851-13.03 7.136-22.474-1.028-43.601-3.216-62.927-6.522-3.461-32.659-9.826-77.246-20.439-120.641-.484-1.974.774-3.947 2.862-4.49zm19.087 140.595c18.299 2.951 38.067 4.948 58.946 5.961v25.166c-20.314-1.025-39.668-3.023-57.167-5.858-.258-5.925-.827-14.585-1.779-25.269zM231.5 215c31.792 0 62.049-2.247 88.5-6.374V247.5c0 17.14-4.14 33.813-11.989 48.5H295.5a7.5 7.5 0 0 0-7.5 7.5v16c0 .722.038 1.435.102 2.14-4.242-2.395-8.282-5.277-12.546-8.325C264.207 305.199 251.344 296 231.5 296a7.5 7.5 0 0 0 0 15c15.032 0 24.439 6.727 35.331 14.516 2.704 1.934 5.499 3.925 8.448 5.844C262.018 339.583 246.906 344 231.5 344c-48.799 0-88.5-43.29-88.5-96.5v-38.874c26.451 4.127 56.708 6.374 88.5 6.374zm-112.999 83.338c-6.732-17.805.705-31.72 9.539-47.692C129.59 310.68 175.405 359 231.5 359c21.088 0 41.665-6.977 58.881-19.799 5.799 2.177 12.309 3.611 19.828 3.762.428.023.858.037 1.291.037a23.58 23.58 0 0 0 3.296-.236C292.746 363.581 263.044 376 231.5 376c-50.024 0-95.435-31.21-112.999-77.662zm47.704 75.877C162.32 377.132 160 381.732 160 386.6v25.8c0 4.968 2.406 9.669 6.437 12.574a15.532 15.532 0 0 0 13.964 2.13l30.766-10.255c2.833 3.728 7.3 6.15 12.333 6.15h.5v25h-69.394l-16.5-16.5 7.868-7.868c4.484-4.484 4.484-11.78 0-16.264l-30.318-30.318 37.817-10.314c.137-.037.268-.087.401-.132a137.536 137.536 0 0 0 12.331 7.612zM71 439.569v-19.407c0-17.578 11.434-33.155 28.028-38.528l33.866 33.865-7.868 7.868c-4.484 4.484-4.484 11.78 0 16.264l8.368 8.368h-51.7C75.897 448 71 444.139 71 439.569zm321 0c0 4.57-4.897 8.431-10.693 8.431h-51.7l8.368-8.368c4.484-4.484 4.484-11.78 0-16.264l-7.868-7.868 33.866-33.866C380.566 387.007 392 402.583 392 420.162v19.407z"/><path d="M183.5 263a7.5 7.5 0 0 0 7.5-7.5v-8a7.5 7.5 0 0 0-15 0v8a7.5 7.5 0 0 0 7.5 7.5zM279.5 263a7.5 7.5 0 0 0 7.5-7.5v-8a7.5 7.5 0 0 0-15 0v8a7.5 7.5 0 0 0 7.5 7.5z"/></g></svg>