<svg xmlns="http://www.w3.org/2000/svg" id="Capa_1" width="512" height="512" viewBox="0 0 397.265 397.265"><g fill="#FFF"><path d="M370.719 94.143c-9.18 8.568-9.18 31.212-11.628 42.228-3.672 17.748-6.12 34.884-7.344 52.632-15.3-2.448-36.108 0-47.124 0-29.376 0-58.14 2.448-86.904 6.732-5.508.612-5.508 6.732-2.446 9.792-1.226 0-2.448.612-2.448 1.836-4.284-3.672-9.18-6.12-13.465-6.731-9.18-1.835-19.584 2.447-25.092 9.792-.612-1.225-1.224-2.447-2.448-3.061-13.464-14.076-55.08-11.017-72.216-11.017-25.704 0-50.796 2.45-75.888 6.121 11.628-15.913 22.644-31.825 34.884-47.125 7.344-9.18 14.688-18.36 23.256-26.928 12.24-12.852 52.02-36.108 56.304-5.508.612 4.896 8.568 4.896 9.18 0 4.896-31.824-32.436-34.884-52.632-21.42-34.272 22.644-59.364 66.708-79.56 102.205h-1.836c-1.224 0-1.836.612-2.448 1.224-2.448 0-4.284 1.226-4.896 4.284-4.896 23.868-16.524 85.68 17.136 94.86 23.256 6.73 55.08 1.836 78.948 1.224 15.912-.611 48.348 3.672 61.812-7.956 11.016-9.18 17.748-48.348 14.688-72.828.612 0 1.224-.61 1.836-1.224 4.284-4.896 9.792-9.181 16.524-7.344 6.732 2.446 7.344 9.18 11.628 14.688-3.672 26.316-1.836 54.468 26.928 61.2 23.868 5.508 49.572 0 74.053-1.836 14.075-.612 43.451 6.731 55.691-3.061 11.628-9.181 8.568-36.107 8.568-48.349 0-11.628 3.06-36.107-7.345-45.288l-5.509-3.672c3.672-17.136 6.732-34.884 10.404-52.02 1.836-7.956 2.448-20.808 6.732-27.54.61-9.18 2.446-9.18 6.118-.612 1.837 4.896 2.448 10.404 3.062 15.912.611 4.896 8.567 7.344 9.792 1.224 1.837-9.79-7.343-50.182-26.315-32.434zM160.803 269.175c-15.3 30.601-61.812 23.257-91.8 23.257-15.3 0-34.272 3.672-45.288-6.732-15.3-14.688-9.18-52.632-6.12-71.604v-.612c29.376-1.225 58.752-4.284 88.128-3.672 11.628 0 46.512-2.448 55.08 4.896 11.015 9.18 5.508 44.063 0 54.467zm177.48 8.568c-12.24 1.836-26.928-.611-39.78.612-14.076 1.224-28.151 3.06-42.228 2.448-22.032-.612-34.272-11.018-34.886-33.66 0-6.12-.61-12.854-.61-18.974 1.224-3.672.61-7.955-.612-11.628 0-3.06-.612-5.508-1.224-8.566v-.612h2.446c33.66-4.896 67.32-6.731 100.98-6.12 21.42.612 35.496 4.284 39.168 28.152 2.45 19.584.002 44.676-23.254 48.348z"/><path d="M89.199 234.903c-2.448 4.284-5.508 7.956-7.344 12.24-4.284-3.672-7.956-8.568-11.628-12.854-4.896-5.508-14.076.612-12.24 6.732 3.672 11.016 11.628 21.42 18.972 29.988 4.896 4.896 13.464 3.672 16.524-2.448 4.896-7.344 9.792-15.3 14.076-22.646 6.732-12.235-10.404-22.027-18.36-11.012zM305.235 222.051c-6.12.611-10.404 6.119-14.076 12.239-4.284-3.06-8.568-6.12-12.854-8.566-6.73-3.062-15.3 3.672-10.402 10.402 5.508 7.956 12.852 15.301 19.584 22.032 4.284 4.284 14.075 4.284 17.136-2.448 1.836-4.283 4.284-8.566 6.732-12.238 3.06-4.284 6.118-6.732 6.118-12.854s-6.118-9.179-12.238-8.567z"/></g></svg>