<svg id="Capa_1" xmlns="http://www.w3.org/2000/svg" viewBox="0 0 49 49"><path fill="#fff" d="M6.8 18.688h35.375v14.5H6.8z"/><path d="M38.453 34c-1.321.133-2.642.272-3.944.533l-5.856 1.171a1.528 1.528 0 0 1-1.828-1.498v-8.717c0-.752.543-1.393 1.287-1.505 0 0 7.2-.368 10.766-10.966C35.089 9.299 29.903 7 24.175 7 18.69 7 13.712 9.12 9.971 12.564c3.509 11.045 10.917 11.419 10.917 11.419a1.516 1.516 0 0 1 1.287 1.505v8.717c0 .964-.882 1.687-1.828 1.498l-5.856-1.171c-1.302-.26-2.623-.399-3.944-.533-4.378-.442-6.512-3.235-7.319-7.04-.017.348-.053.69-.053 1.041 0 11.598 9.402 21 21 21 11.216 0 20.351-8.8 20.943-19.868-1.103 2.666-3.171 4.515-6.665 4.868z" fill="#fbd971"/><path d="M35.175 39.025v6.155c0 .302.312.503.583.369 1.727-.859 6.825-4.821 8.935-12.602.19-.701.048-.589-.518-.134l-8.826 5.878a.407.407 0 0 0-.174.334zM13.175 39.025v6.155a.405.405 0 0 1-.583.369c-1.727-.859-6.825-4.821-8.935-12.602-.19-.701-.048-.589.518-.134l8.826 5.878a.407.407 0 0 1 .174.334z" fill="#af8066"/><path d="M28.825 44h-8a1 1 0 1 1 0-2h8a1 1 0 1 1 0 2zM24.563 39.583h-.012a1 1 0 0 1-.796-.411l-2.612-3.583a.997.997 0 0 1 .219-1.396.996.996 0 0 1 1.396.219l1.825 2.502 1.799-2.344a.999.999 0 1 1 1.586 1.216l-2.612 3.405a1 1 0 0 1-.793.392z" fill="#f0c419"/><path d="M20.888 23.983S8.55 23.375 8.175 0c0 0-13.491 32.4 2.372 34 1.321.133 2.642.272 3.944.533l5.856 1.171a1.528 1.528 0 0 0 1.828-1.498v-8.717c0-.753-.542-1.394-1.287-1.506zm-2.738 5.715l-1.509 2.526-7.604-6.759L19.175 28l-1.025 1.698zM40.825 0c-.375 23.375-12.713 23.983-12.713 23.983a1.516 1.516 0 0 0-1.287 1.505v8.717c0 .964.882 1.687 1.828 1.498l5.856-1.171c1.302-.26 2.623-.399 3.944-.533C54.315 32.4 40.825 0 40.825 0zm-8.466 32.224l-1.509-2.526L29.825 28l10.139-2.535-7.605 6.759z" fill="#556080"/></svg>