<?xml version="1.0" encoding="iso-8859-1"?>
<!-- Generator: Adobe Illustrator 19.0.0, SVG Export Plug-In . SVG Version: 6.00 Build 0)  -->
<svg xmlns="http://www.w3.org/2000/svg" xmlns:xlink="http://www.w3.org/1999/xlink" version="1.1" id="Layer_1" x="0px" y="0px" viewBox="0 0 512.001 512.001" style="enable-background:new 0 0 512.001 512.001;" xml:space="preserve" width="512px" height="512px">
<g>
	<g>
		<path d="M484.696,428.817h-20.991V201.23h7.701c4.656,0,8.43-3.774,8.43-8.43s-3.773-8.43-8.43-8.43h-7.701v-21.797h7.701    c4.656,0,8.43-3.774,8.43-8.43s-3.773-8.43-8.43-8.43H447.18v-13.487c0-4.655-3.773-8.43-8.43-8.43    c-9.443,0-18.33-3.679-25.016-10.355c-6.685-6.685-10.367-15.57-10.367-25.016v-9.036c0-4.655-3.773-8.43-8.43-8.43h-22.18    c-7.339-13.958-21.98-23.505-38.816-23.505s-31.475,9.547-38.816,23.505h-22.193c-4.657,0-8.43,3.774-8.43,8.43v9.036    c0,19.504-15.867,35.371-35.371,35.371c-4.656,0-8.43,3.774-8.43,8.43v13.487h-15.308V111.52c0-4.655-3.773-8.43-8.43-8.43    h-34.842c-4.657,0-8.43,3.774-8.43,8.43v34.195h-8.992V68.897c0-4.655-3.773-8.43-8.43-8.43H101.43c-4.656,0-8.43,3.774-8.43,8.43    v76.82H40.593c-4.656,0-8.43,3.774-8.43,8.43c0,4.655,3.773,8.43,8.43,8.43h7.701v21.797h-7.701c-4.656,0-8.43,3.774-8.43,8.43    s3.773,8.43,8.43,8.43h7.701v227.587h-20.99c-4.656,0-8.43,3.774-8.43,8.43v66.323c0,4.655,3.773,8.43,8.43,8.43h457.392    c4.657,0,8.43-3.774,8.43-8.43v-66.323C493.126,432.592,489.353,428.817,484.696,428.817z M333.942,64.315    c14.872,0,26.972,12.1,26.972,26.974c0,14.872-12.1,26.972-26.972,26.972s-26.973-12.1-26.973-26.972    C306.97,76.416,319.07,64.315,333.942,64.315z M281.364,88.427v-0.607h8.897c-0.09,1.145-0.15,2.3-0.15,3.467    c0,24.168,19.662,43.832,43.832,43.832s43.832-19.663,43.832-43.832c0-1.169-0.06-2.322-0.149-3.467h8.885v0.607    c0,13.949,5.435,27.067,15.308,36.941c7.854,7.843,17.762,12.883,28.503,14.616v5.731H237.565v-5.738h-0.001    C262.369,135.936,281.364,114.358,281.364,88.427z M170.554,119.95h17.983v25.765h-17.983V119.95z M109.861,77.326h17.983v68.39    h-17.983V77.326z M65.153,162.574h381.694v21.797H65.153V162.574z M65.153,201.23h381.694v227.587H386.94V232.505    c0-4.655-3.773-8.43-8.43-8.43H133.489c-4.656,0-8.43,3.774-8.43,8.43v196.312H65.153V201.23z M141.919,400.461V240.935h228.16    v159.526H141.919z M370.079,417.321v11.497h-15.172v-11.497H370.079z M338.048,417.321v11.497h-43.46v-11.497H338.048z     M277.729,417.321v11.497h-43.46v-11.497H277.729z M217.41,417.321v11.497h-43.459v-11.497H217.41z M157.092,417.321v11.497    h-15.173v-11.497H157.092z M476.267,495.14H35.734v-49.464h440.533V495.14z" fill="#FFFFFF"/>
	</g>
</g>
<g>
	<g>
		<path d="M135.939,13.595h0.001L124.814,2.469c-3.293-3.292-8.63-3.292-11.922,0l-11.125,11.126    c-4.565,4.564-7.079,10.633-7.079,17.087s2.513,12.523,7.079,17.088c4.562,4.563,10.631,7.076,17.086,7.076    c6.454,0,12.523-2.514,17.085-7.077c4.565-4.564,7.079-10.633,7.079-17.087S140.504,18.159,135.939,13.595z M124.018,35.848    c-1.38,1.38-3.213,2.14-5.165,2.14s-3.787-0.76-5.168-2.141c-1.38-1.38-2.139-3.214-2.139-5.166s0.76-3.785,2.14-5.166    l5.166-5.166l5.166,5.166h0.001c1.38,1.38,2.139,3.215,2.139,5.166S125.398,34.468,124.018,35.848z" fill="#FFFFFF"/>
	</g>
</g>
<g>
	<g>
		<path d="M196.633,55.293l-11.126-11.126c-3.293-3.292-8.63-3.292-11.922,0L162.46,55.293c-4.565,4.564-7.079,10.633-7.079,17.087    s2.513,12.523,7.079,17.087c4.562,4.564,10.631,7.077,17.085,7.077c6.455,0,12.524-2.514,17.086-7.077    c4.565-4.564,7.079-10.633,7.079-17.087S201.197,59.858,196.633,55.293z M184.711,77.547c-1.38,1.38-3.213,2.14-5.166,2.14    c-1.952,0-3.785-0.76-5.167-2.14c-1.38-1.38-2.139-3.214-2.139-5.166s0.76-3.785,2.14-5.166l5.166-5.166l5.166,5.166h0.001    c1.38,1.38,2.139,3.214,2.139,5.166S186.091,76.166,184.711,77.547z" fill="#FFFFFF"/>
	</g>
</g>
<g>
	<g>
		<path d="M286.242,273.639c-17.417-17.164-35.54-26.82-36.304-27.222c-2.612-1.378-5.753-1.29-8.288,0.236    c-2.53,1.525-4.077,4.264-4.077,7.219c0,31.022-11.045,41.358-22.737,52.3c-10.199,9.545-21.758,20.361-21.23,43.65    c0.47,20.741,13.672,37.697,35.312,45.358c1.533,0.543,3.11,0.807,4.666,0.807c3.944,0,7.765-1.693,10.473-4.814    c3.802-4.385,4.522-10.537,1.834-15.672c-6.532-12.477-5.657-23.319,2.728-32.87c2.903,7.149,7.247,12.292,11.012,16.746    c4.767,5.642,7.255,8.813,7.255,13.704c0,1.737-0.105,3.382-0.308,4.889c-0.688,5.063,1.453,10.089,5.588,13.112    c4.151,3.035,9.609,3.554,14.247,1.353c18.038-8.562,29.216-23.758,31.473-42.789C321.002,323.392,310.06,297.11,286.242,273.639z     M301.143,347.659c-1.659,13.985-9.639,22.263-17.421,27.079c0.016-0.547,0.024-1.1,0.024-1.658    c0-11.288-5.97-18.353-11.237-24.586c-5.24-6.202-9.766-11.556-10.269-21.755c-0.151-3.039-1.926-5.76-4.648-7.122    c-2.722-1.362-5.965-1.151-8.486,0.55c-21.698,14.634-29.205,34.796-21.281,56.157c-8.109-4.365-17.038-12.441-17.366-26.886    c-0.356-15.748,6.46-22.126,15.895-30.955c10.771-10.08,23.81-22.281,27.227-49.948    C272.005,281.263,305.615,309.977,301.143,347.659z" fill="#FFFFFF"/>
	</g>
</g>
<g>
	<g>
		<path d="M333.942,72.829c-4.657,0-8.43,3.774-8.43,8.43v10.029c0,4.656,3.774,8.43,8.43,8.43c4.656,0,8.43-3.774,8.43-8.43V81.259    C342.372,76.604,338.599,72.829,333.942,72.829z" fill="#FFFFFF"/>
	</g>
</g>
<g>
</g>
<g>
</g>
<g>
</g>
<g>
</g>
<g>
</g>
<g>
</g>
<g>
</g>
<g>
</g>
<g>
</g>
<g>
</g>
<g>
</g>
<g>
</g>
<g>
</g>
<g>
</g>
<g>
</g>
</svg>
