<?xml version="1.0" encoding="iso-8859-1"?>
<!-- Generator: Adobe Illustrator 18.0.0, SVG Export Plug-In . SVG Version: 6.00 Build 0)  -->
<!DOCTYPE svg PUBLIC "-//W3C//DTD SVG 1.1//EN" "http://www.w3.org/Graphics/SVG/1.1/DTD/svg11.dtd">
<svg xmlns="http://www.w3.org/2000/svg" xmlns:xlink="http://www.w3.org/1999/xlink" version="1.1" id="Capa_1" x="0px" y="0px" viewBox="0 0 60 60" style="enable-background:new 0 0 60 60;" xml:space="preserve" width="512px" height="512px">
<g>
	<path d="M39,27c3.309,0,6-2.691,6-6s-2.691-6-6-6s-6,2.691-6,6S35.691,27,39,27z M39,17c2.206,0,4,1.794,4,4s-1.794,4-4,4   s-4-1.794-4-4S36.794,17,39,17z" fill="#FFFFFF"/>
	<path d="M18.891,38.53c0.173-0.339,0.138-0.747-0.09-1.052l-1.118-1.498l0.6-1.77c0.123-0.36,0.029-0.759-0.24-1.028   c-0.269-0.269-0.668-0.361-1.028-0.24l-1.77,0.6l-1.498-1.117c-0.306-0.228-0.714-0.263-1.052-0.089   c-0.339,0.173-0.551,0.522-0.546,0.903l0.024,1.868l-1.526,1.079c-0.311,0.22-0.47,0.597-0.41,0.973s0.328,0.686,0.691,0.799   l1.785,0.555l0.555,1.784c0.113,0.363,0.423,0.631,0.799,0.69C14.12,40.996,14.172,41,14.224,41c0.321,0,0.627-0.155,0.816-0.423   l1.079-1.525l1.868,0.024C18.379,39.064,18.718,38.869,18.891,38.53z M15.619,37.045c-0.319,0.029-0.64,0.154-0.83,0.423   l-0.213,0.301l-0.109-0.352c-0.098-0.314-0.344-0.561-0.658-0.658l-0.352-0.109l0.301-0.213c0.269-0.19,0.426-0.5,0.422-0.829   l-0.005-0.368l0.295,0.221c0.265,0.196,0.609,0.25,0.919,0.146l0.349-0.118l-0.118,0.349c-0.106,0.312-0.051,0.655,0.146,0.919   l0.22,0.295L15.619,37.045z" fill="#FFFFFF"/>
	<path d="M39,13c0.552,0,1-0.447,1-1V1c0-0.553-0.448-1-1-1s-1,0.447-1,1v11C38,12.553,38.448,13,39,13z" fill="#FFFFFF"/>
	<path d="M39,56.5c-0.552,0-1,0.447-1,1V59c0,0.553,0.448,1,1,1s1-0.447,1-1v-1.5C40,56.947,39.552,56.5,39,56.5z" fill="#FFFFFF"/>
	<path d="M39,50.723c-0.552,0-1,0.447-1,1v2.889c0,0.553,0.448,1,1,1s1-0.447,1-1v-2.889C40,51.17,39.552,50.723,39,50.723z" fill="#FFFFFF"/>
	<path d="M39,44.944c-0.552,0-1,0.447-1,1v2.89c0,0.553,0.448,1,1,1s1-0.447,1-1v-2.89C40,45.392,39.552,44.944,39,44.944z" fill="#FFFFFF"/>
	<path d="M39,33.389c-0.552,0-1,0.447-1,1v2.89c0,0.553,0.448,1,1,1s1-0.447,1-1v-2.89C40,33.836,39.552,33.389,39,33.389z" fill="#FFFFFF"/>
	<path d="M39,39.167c-0.552,0-1,0.447-1,1v2.889c0,0.553,0.448,1,1,1s1-0.447,1-1v-2.889C40,39.614,39.552,39.167,39,39.167z" fill="#FFFFFF"/>
	<path d="M39,29c-0.552,0-1,0.447-1,1v1.5c0,0.553,0.448,1,1,1s1-0.447,1-1V30C40,29.447,39.552,29,39,29z" fill="#FFFFFF"/>
	<path d="M59,20H48c-0.553,0-1,0.447-1,1s0.447,1,1,1h11c0.553,0,1-0.447,1-1S59.553,20,59,20z" fill="#FFFFFF"/>
	<path d="M19,22h11c0.552,0,1-0.447,1-1s-0.448-1-1-1H19c-0.552,0-1,0.447-1,1S18.448,22,19,22z" fill="#FFFFFF"/>
	<path d="M44.657,15.343c0.195,0.195,0.451,0.293,0.707,0.293s0.512-0.098,0.707-0.293l7.779-7.778c0.391-0.391,0.391-1.023,0-1.414   s-1.023-0.391-1.414,0l-7.779,7.778C44.266,14.319,44.266,14.952,44.657,15.343z" fill="#FFFFFF"/>
	<path d="M26,35c0.256,0,0.512-0.098,0.707-0.293l6.636-6.636c0.391-0.391,0.391-1.023,0-1.414s-1.023-0.391-1.414,0l-6.636,6.636   c-0.391,0.391-0.391,1.023,0,1.414C25.488,34.902,25.744,35,26,35z" fill="#FFFFFF"/>
	<path d="M46.071,26.657c-0.391-0.391-1.023-0.391-1.414,0s-0.391,1.023,0,1.414l7.779,7.778c0.195,0.195,0.451,0.293,0.707,0.293   s0.512-0.098,0.707-0.293c0.391-0.391,0.391-1.023,0-1.414L46.071,26.657z" fill="#FFFFFF"/>
	<path d="M31.929,15.343c0.195,0.195,0.451,0.293,0.707,0.293s0.512-0.098,0.707-0.293c0.391-0.391,0.391-1.023,0-1.414L25.565,6.15   c-0.391-0.391-1.023-0.391-1.414,0s-0.391,1.023,0,1.414L31.929,15.343z" fill="#FFFFFF"/>
	<path d="M42.171,13.514c0.129,0.056,0.264,0.082,0.396,0.082c0.387,0,0.755-0.226,0.918-0.604l4.361-10.099   c0.219-0.507-0.015-1.096-0.521-1.314c-0.505-0.219-1.096,0.015-1.314,0.521L41.65,12.199   C41.431,12.706,41.665,13.295,42.171,13.514z" fill="#FFFFFF"/>
	<path d="M35.829,28.202c-0.508-0.218-1.096,0.015-1.314,0.521l-4.361,10.099c-0.219,0.507,0.015,1.096,0.521,1.314   c0.129,0.056,0.264,0.082,0.396,0.082c0.387,0,0.755-0.226,0.918-0.604l4.361-10.099C36.569,29.01,36.335,28.421,35.829,28.202z" fill="#FFFFFF"/>
	<path d="M57.758,27.869l-10.099-4.361c-0.508-0.221-1.096,0.015-1.314,0.521c-0.219,0.507,0.015,1.096,0.521,1.314l10.099,4.361   c0.129,0.056,0.264,0.082,0.396,0.082c0.388,0,0.756-0.226,0.919-0.604C58.498,28.677,58.265,28.088,57.758,27.869z" fill="#FFFFFF"/>
	<path d="M20.242,13.847l10.099,4.361c0.129,0.056,0.264,0.082,0.396,0.082c0.387,0,0.755-0.226,0.918-0.604   c0.219-0.507-0.015-1.096-0.521-1.314l-10.099-4.361c-0.508-0.218-1.096,0.015-1.314,0.521   C19.501,13.039,19.735,13.628,20.242,13.847z" fill="#FFFFFF"/>
	<path d="M46.543,18.193c0.145,0.411,0.531,0.667,0.943,0.667c0.11,0,0.223-0.019,0.333-0.057l10.372-3.664   c0.521-0.185,0.794-0.756,0.61-1.276c-0.185-0.521-0.753-0.789-1.276-0.61l-10.372,3.664   C46.632,17.102,46.359,17.673,46.543,18.193z" fill="#FFFFFF"/>
	<path d="M24,27c0.104,0,0.209-0.016,0.312-0.05l6.514-2.145c0.525-0.173,0.81-0.738,0.637-1.263s-0.738-0.811-1.262-0.638   l-6.514,2.145c-0.525,0.173-0.81,0.738-0.637,1.263C23.188,26.733,23.58,27,24,27z" fill="#FFFFFF"/>
	<path d="M42.94,29.011c-0.184-0.521-0.755-0.79-1.276-0.61c-0.521,0.185-0.794,0.756-0.61,1.276l3.664,10.372   c0.145,0.411,0.531,0.667,0.943,0.667c0.11,0,0.223-0.019,0.333-0.057c0.521-0.185,0.794-0.756,0.61-1.276L42.94,29.011z" fill="#FFFFFF"/>
	<path d="M35.06,12.705c0.145,0.411,0.531,0.667,0.943,0.667c0.11,0,0.223-0.019,0.333-0.057c0.521-0.185,0.794-0.756,0.61-1.276   L33.282,1.667c-0.184-0.521-0.755-0.79-1.276-0.61c-0.521,0.185-0.794,0.756-0.61,1.276L35.06,12.705z" fill="#FFFFFF"/>
	<path d="M16,22c0-0.553-0.448-1-1-1s-1,0.447-1,1v2c0,0.553,0.448,1,1,1s1-0.447,1-1V22z" fill="#FFFFFF"/>
	<path d="M15,30c0.552,0,1-0.447,1-1v-2c0-0.553-0.448-1-1-1s-1,0.447-1,1v2C14,29.553,14.448,30,15,30z" fill="#FFFFFF"/>
	<path d="M15,42.05c-0.552,0-1,0.447-1,1V59c0,0.553,0.448,1,1,1s1-0.447,1-1V43.05C16,42.497,15.552,42.05,15,42.05z" fill="#FFFFFF"/>
	<path d="M25,37c0-0.553-0.448-1-1-1h-2c-0.552,0-1,0.447-1,1s0.448,1,1,1h2C24.552,38,25,37.553,25,37z" fill="#FFFFFF"/>
	<path d="M6,37h2c0.552,0,1-0.447,1-1s-0.448-1-1-1H6c-0.552,0-1,0.447-1,1S5.448,37,6,37z" fill="#FFFFFF"/>
	<path d="M4,36c0-0.553-0.448-1-1-1H1c-0.552,0-1,0.447-1,1s0.448,1,1,1h2C3.552,37,4,36.553,4,36z" fill="#FFFFFF"/>
	<path d="M24.01,31c0.553,0,1-0.447,1-1s-0.447-1-1-1H24c-0.552,0-0.995,0.447-0.995,1S23.458,31,24.01,31z" fill="#FFFFFF"/>
	<path d="M20.001,34c0.208,0,0.419-0.065,0.599-0.2l1.6-1.2c0.442-0.331,0.531-0.958,0.2-1.399c-0.33-0.442-0.956-0.531-1.4-0.2   l-1.6,1.2c-0.442,0.331-0.531,0.958-0.2,1.399C19.396,33.862,19.697,34,20.001,34z" fill="#FFFFFF"/>
	<path d="M5.707,43.879l-1.414,1.414c-0.391,0.391-0.391,1.023,0,1.414C4.488,46.902,4.744,47,5,47s0.512-0.098,0.707-0.293   l1.414-1.414c0.391-0.391,0.391-1.023,0-1.414S6.098,43.488,5.707,43.879z" fill="#FFFFFF"/>
	<path d="M9.243,43.172l1.414-1.415c0.39-0.391,0.39-1.024,0-1.414c-0.391-0.391-1.024-0.391-1.415,0l-1.414,1.415   c-0.39,0.391-0.39,1.024,0,1.414c0.195,0.195,0.451,0.293,0.707,0.293S9.048,43.367,9.243,43.172z" fill="#FFFFFF"/>
	<path d="M7.048,26.896l-1.28-1.536c-0.354-0.425-0.985-0.481-1.408-0.128c-0.424,0.354-0.481,0.984-0.128,1.409l1.28,1.536   c0.198,0.237,0.482,0.359,0.769,0.359c0.226,0,0.453-0.076,0.64-0.231C7.345,27.951,7.402,27.32,7.048,26.896z" fill="#FFFFFF"/>
	<path d="M10.25,30.738L8.969,29.2c-0.354-0.425-0.985-0.481-1.408-0.128c-0.424,0.354-0.481,0.984-0.128,1.408l1.281,1.537   c0.198,0.238,0.482,0.36,0.769,0.36c0.226,0,0.453-0.076,0.64-0.231C10.546,31.793,10.603,31.162,10.25,30.738z" fill="#FFFFFF"/>
	<path d="M18,27.764l-0.895,1.789c-0.247,0.494-0.047,1.095,0.447,1.342C17.696,30.966,17.849,31,17.999,31   c0.367,0,0.72-0.202,0.896-0.553l0.895-1.789c0.247-0.494,0.047-1.095-0.447-1.342C18.846,27.07,18.247,27.27,18,27.764z" fill="#FFFFFF"/>
	<path d="M19.789,26.423c0.144,0.071,0.296,0.105,0.446,0.105c0.367,0,0.72-0.202,0.896-0.553l0.764-1.528   c0.247-0.494,0.047-1.095-0.447-1.342c-0.496-0.245-1.095-0.047-1.342,0.447l-0.764,1.528   C19.094,25.575,19.294,26.176,19.789,26.423z" fill="#FFFFFF"/>
	<path d="M12.447,42.105c-0.495-0.246-1.095-0.047-1.342,0.447l-0.764,1.528c-0.247,0.494-0.047,1.095,0.447,1.342   c0.144,0.071,0.296,0.105,0.446,0.105c0.367,0,0.72-0.202,0.896-0.553l0.764-1.528C13.142,42.953,12.941,42.353,12.447,42.105z" fill="#FFFFFF"/>
	<path d="M10.342,46.316C9.847,46.07,9.247,46.27,9,46.764l-0.895,1.789c-0.247,0.494-0.047,1.095,0.447,1.342   C8.696,49.966,8.849,50,8.999,50c0.367,0,0.72-0.202,0.896-0.553l0.895-1.789C11.036,47.164,10.836,46.563,10.342,46.316z" fill="#FFFFFF"/>
	<path d="M23.229,39.814l-1.857-0.743c-0.515-0.206-1.096,0.044-1.3,0.558c-0.206,0.513,0.044,1.095,0.557,1.3l1.857,0.743   c0.122,0.049,0.248,0.071,0.371,0.071c0.397,0,0.772-0.237,0.929-0.629C23.991,40.602,23.741,40.02,23.229,39.814z" fill="#FFFFFF"/>
	<path d="M26.371,41.071l-0.357-0.143c-0.515-0.207-1.094,0.046-1.299,0.559c-0.205,0.513,0.045,1.095,0.558,1.299l0.357,0.143   C25.751,42.978,25.876,43,26,43c0.397,0,0.773-0.238,0.929-0.63C27.133,41.857,26.883,41.275,26.371,41.071z" fill="#FFFFFF"/>
	<path d="M5.677,32.576c-0.218,0.507,0.017,1.095,0.525,1.313l1.838,0.788c0.128,0.056,0.262,0.081,0.394,0.081   c0.388,0,0.757-0.227,0.919-0.606c0.218-0.507-0.017-1.095-0.525-1.313L6.99,32.051C6.483,31.832,5.894,32.068,5.677,32.576z" fill="#FFFFFF"/>
	<path d="M1.606,31.919l1.838,0.788c0.128,0.056,0.262,0.081,0.394,0.081c0.388,0,0.757-0.227,0.919-0.606   c0.218-0.507-0.017-1.095-0.525-1.313l-1.838-0.788c-0.509-0.222-1.096,0.017-1.313,0.525C0.863,31.113,1.098,31.701,1.606,31.919z   " fill="#FFFFFF"/>
	<path d="M6.807,40.626c0.091,0,0.183-0.013,0.275-0.038l1.923-0.549c0.531-0.152,0.839-0.705,0.687-1.236   c-0.151-0.531-0.705-0.834-1.236-0.688l-1.923,0.549c-0.531,0.152-0.839,0.705-0.687,1.236C5.971,40.34,6.372,40.626,6.807,40.626z   " fill="#FFFFFF"/>
	<path d="M4.884,40.175c-0.152-0.53-0.704-0.834-1.236-0.687l-1.923,0.55c-0.531,0.152-0.838,0.706-0.687,1.237   C1.164,41.714,1.564,42,2,42c0.091,0,0.184-0.013,0.275-0.038l1.923-0.55C4.729,41.26,5.036,40.706,4.884,40.175z" fill="#FFFFFF"/>
	<path d="M19.941,43.109l-1.109-1.664c-0.308-0.46-0.928-0.583-1.387-0.277c-0.459,0.307-0.583,0.927-0.277,1.387l1.109,1.664   c0.193,0.289,0.51,0.445,0.833,0.445c0.19,0,0.383-0.055,0.554-0.168C20.124,44.189,20.248,43.569,19.941,43.109z" fill="#FFFFFF"/>
	<path d="M21.605,45.605c-0.307-0.46-0.927-0.584-1.387-0.277s-0.583,0.927-0.277,1.387l1.109,1.664   c0.193,0.289,0.51,0.445,0.833,0.445c0.19,0,0.383-0.055,0.554-0.168c0.459-0.307,0.584-0.927,0.277-1.387L21.605,45.605z" fill="#FFFFFF"/>
	<path d="M11.922,30.73c0.091,0,0.184-0.013,0.275-0.038c0.531-0.152,0.838-0.705,0.687-1.236l-0.549-1.923   c-0.151-0.531-0.705-0.834-1.236-0.688c-0.531,0.152-0.838,0.705-0.687,1.236l0.549,1.923C11.087,30.444,11.487,30.73,11.922,30.73   z" fill="#FFFFFF"/>
	<path d="M9.039,23.274l0.549,1.923c0.125,0.439,0.526,0.726,0.961,0.726c0.091,0,0.184-0.013,0.275-0.038   c0.531-0.152,0.838-0.705,0.687-1.236l-0.549-1.923c-0.152-0.531-0.705-0.835-1.236-0.688C9.194,22.19,8.887,22.743,9.039,23.274z" fill="#FFFFFF"/>
	<path d="M5.5,15C7.43,15,9,13.43,9,11.5S7.43,8,5.5,8S2,9.57,2,11.5S3.57,15,5.5,15z M5.5,10C6.327,10,7,10.673,7,11.5   S6.327,13,5.5,13S4,12.327,4,11.5S4.673,10,5.5,10z" fill="#FFFFFF"/>
	<path d="M14.5,9C16.43,9,18,7.43,18,5.5S16.43,2,14.5,2S11,3.57,11,5.5S12.57,9,14.5,9z M14.5,4C15.327,4,16,4.673,16,5.5   S15.327,7,14.5,7S13,6.327,13,5.5S13.673,4,14.5,4z" fill="#FFFFFF"/>
	<circle cx="13.5" cy="12.5" r="1.5" fill="#FFFFFF"/>
	<circle cx="8.5" cy="17.5" r="1.5" fill="#FFFFFF"/>
</g>
<g>
</g>
<g>
</g>
<g>
</g>
<g>
</g>
<g>
</g>
<g>
</g>
<g>
</g>
<g>
</g>
<g>
</g>
<g>
</g>
<g>
</g>
<g>
</g>
<g>
</g>
<g>
</g>
<g>
</g>
</svg>
