<?xml version="1.0" encoding="iso-8859-1"?>
<svg xmlns="http://www.w3.org/2000/svg" xmlns:xlink="http://www.w3.org/1999/xlink" version="1.1" viewBox="0 0 463 463" enable-background="new 0 0 463 463" width="512px" height="512px">
  <g>
    <path d="m366.103,366.618l-42.496-11.59c15.236-13.959 27.37-31.413 34.922-51.385 9.296-24.585-1.419-43.949-10.873-61.034-6.509-11.761-12.656-22.871-12.656-35.109 0-0.502-0.051-0.992-0.146-1.467 20.62-4.008 38.327-9.258 51.815-15.549 3.754-1.75 5.378-6.213 3.627-9.967-1.751-3.754-6.215-5.379-9.967-3.627-11.599,5.41-27.017,10.039-45.024,13.705 1.379-25.969 7.653-91.649 23.161-155.059 2.412-9.86-3.716-19.985-13.66-22.571-22.753-5.914-60.881-12.965-113.306-12.965s-90.553,7.051-113.307,12.966c-9.943,2.585-16.071,12.711-13.66,22.571 15.508,63.41 21.783,129.091 23.161,155.059-18.007-3.666-33.425-8.295-45.024-13.705-3.752-1.751-8.216-0.127-9.967,3.627s-0.127,8.216 3.627,9.967c13.488,6.291 31.196,11.541 51.815,15.549-0.094,0.475-0.146,0.964-0.146,1.467 0,12.238-6.147,23.348-12.656,35.109-9.454,17.084-20.169,36.449-10.873,61.034 7.551,19.972 19.685,37.426 34.922,51.385l-42.496,11.59c-24.079,6.566-40.896,28.584-40.896,53.543v19.407c0,12.92 11.526,23.431 25.693,23.431h299.613c14.168,0 25.694-10.511 25.694-23.431v-19.407c0-24.959-16.817-46.977-40.897-53.544zm-56.577,.118l37.818,10.314-30.319,30.319c-4.484,4.484-4.484,11.78 0,16.264l7.868,7.868-16.5,16.5h-69.393v-25h0.5c5.033,0 9.5-2.422 12.333-6.15l30.766,10.255c1.594,0.531 3.244,0.792 4.888,0.792 3.218,0 6.408-0.999 9.076-2.922 4.031-2.905 6.437-7.606 6.437-12.574v-25.802c0-4.868-2.32-9.468-6.205-12.385 4.243-2.323 8.361-4.859 12.33-7.611 0.133,0.045 0.264,0.094 0.401,0.132zm-133.868,46.139c-0.079,0.026-0.244,0.081-0.45-0.069-0.208-0.15-0.208-0.323-0.208-0.406v-25.8c0-0.083 0-0.256 0.208-0.406 0.207-0.15 0.372-0.096 0.45-0.069l32.342,10.781v5.188l-32.342,10.781zm47.342-5.508c0-0.008 0-0.016 0-0.024v-15.688c0-0.008 0-0.016 0-0.024v-0.131c0-0.276 0.224-0.5 0.5-0.5h16c0.276,0 0.5,0.224 0.5,0.5v0.133c0,0.008 0,0.016 0,0.024v15.688c0,0.008 0,0.016 0,0.024v0.133c0,0.276-0.224,0.5-0.5,0.5h-16c-0.276,0-0.5-0.224-0.5-0.5v-0.135zm32-10.461l32.342-10.781c0.078-0.027 0.243-0.082 0.45,0.069 0.208,0.15 0.208,0.323 0.208,0.406v25.8c0,0.083 0,0.256-0.208,0.406-0.207,0.15-0.372,0.096-0.45,0.069l-32.342-10.781v-5.188zm48-77.406v-8.5h17v8.5c0,4.687-3.813,8.5-8.5,8.5s-8.5-3.813-8.5-8.5zm41.499-21.162c-2.583,6.833-5.784,13.324-9.499,19.447v-14.285c0-4.142-3.358-7.5-7.5-7.5h-2.794c6.334-14.114 9.844-29.537 10.254-45.354 8.833,15.971 16.27,29.887 9.539,47.692zm-81.499-99.132v-25.166c20.879-1.014 40.646-3.01 58.946-5.961-0.952,10.683-1.521,19.344-1.779,25.27-17.499,2.834-36.853,4.832-57.167,5.857zm-48,.294v-32c0-0.276 0.224-0.5 0.5-0.5h32c0.276,0 0.5,0.224 0.5,0.5v8.5h-16.5c-4.142,0-7.5,3.358-7.5,7.5s3.358,7.5 7.5,7.5h16.5v8.5c0,0.095 0.011,0.188 0.014,0.282-5.46,0.143-10.969,0.218-16.514,0.218s-11.055-0.075-16.514-0.218c0.003-0.094 0.014-0.187 0.014-0.282zm-93.033-172.017c21.907-5.694 58.693-12.483 109.533-12.483s87.626,6.789 109.533,12.483c2.088,0.543 3.347,2.515 2.864,4.49-10.613,43.395-16.979,87.982-20.439,120.641-19.326,3.306-40.453,5.495-62.927,6.522-2.76-4.286-7.564-7.136-13.03-7.136h-32c-5.466,0-10.269,2.851-13.03,7.136-22.474-1.028-43.601-3.216-62.927-6.522-3.461-32.659-9.826-77.246-20.439-120.641-0.484-1.974 0.774-3.947 2.862-4.49zm19.087,140.595c18.299,2.951 38.067,4.948 58.946,5.961v25.166c-20.314-1.025-39.668-3.023-57.167-5.858-0.258-5.925-0.827-14.585-1.779-25.269zm90.446,46.922c31.792,0 62.049-2.247 88.5-6.374v38.874c0,17.14-4.14,33.813-11.989,48.5h-12.511c-4.142,0-7.5,3.358-7.5,7.5v16c0,0.722 0.038,1.435 0.102,2.14-4.242-2.395-8.282-5.277-12.546-8.325-11.349-8.116-24.212-17.315-44.056-17.315-4.142,0-7.5,3.358-7.5,7.5s3.358,7.5 7.5,7.5c15.032,0 24.439,6.727 35.331,14.516 2.704,1.934 5.499,3.925 8.448,5.844-13.261,8.223-28.373,12.64-43.779,12.64-48.799,0-88.5-43.29-88.5-96.5v-38.874c26.451,4.127 56.708,6.374 88.5,6.374zm-112.999,83.338c-6.732-17.805 0.705-31.72 9.539-47.692 1.55,60.034 47.365,108.354 103.46,108.354 21.088,0 41.665-6.977 58.881-19.799 5.799,2.177 12.309,3.611 19.828,3.762 0.428,0.023 0.858,0.037 1.291,0.037 1.119,0 2.218-0.084 3.296-0.236-22.05,20.817-51.752,33.236-83.296,33.236-50.024,0-95.435-31.21-112.999-77.662zm47.704,75.877c-3.885,2.917-6.205,7.517-6.205,12.385v25.8c0,4.968 2.406,9.669 6.437,12.574 2.668,1.923 5.857,2.922 9.076,2.922 1.644,0 3.295-0.261 4.888-0.792l30.766-10.255c2.833,3.728 7.3,6.15 12.333,6.15h0.5v25h-69.394l-16.5-16.5 7.868-7.868c4.484-4.484 4.484-11.78 0-16.264l-30.318-30.318 37.817-10.314c0.137-0.037 0.268-0.087 0.401-0.132 3.97,2.753 8.088,5.289 12.331,7.612zm-95.205,65.354v-19.407c0-17.578 11.434-33.155 28.028-38.528l33.866,33.865-7.868,7.868c-4.484,4.484-4.484,11.78 0,16.264l8.368,8.368h-51.7c-5.797,0.001-10.694-3.86-10.694-8.43zm321,0c0,4.57-4.897,8.431-10.693,8.431h-51.7l8.368-8.368c4.484-4.484 4.484-11.78 0-16.264l-7.868-7.868 33.866-33.866c16.593,5.373 28.027,20.949 28.027,38.528v19.407z" fill="#FFFFFF"/>
    <path d="m183.5,263c4.142,0 7.5-3.358 7.5-7.5v-8c0-4.142-3.358-7.5-7.5-7.5s-7.5,3.358-7.5,7.5v8c0,4.142 3.358,7.5 7.5,7.5z" fill="#FFFFFF"/>
    <path d="m279.5,263c4.142,0 7.5-3.358 7.5-7.5v-8c0-4.142-3.358-7.5-7.5-7.5s-7.5,3.358-7.5,7.5v8c0,4.142 3.358,7.5 7.5,7.5z" fill="#FFFFFF"/>
  </g>
</svg>
